M48
INCH,TZ
T1C0.0157
T2C0.0197
T3C0.0236
T4C0.0295
T5C0.0610
T6C0.0984
%
G90
G05
T1
X41250Y-26250
X41250Y-27250
X41250Y-28250
X41250Y-29250
X41250Y-30250
X41250Y-31250
X41250Y-32250
X41250Y-33250
X41250Y-34250
X41250Y-35250
X41250Y-36250
X41250Y-37250
X41250Y-38250
X41250Y-39250
X41250Y-40250
X41250Y-41250
X41250Y-42250
X42250Y-26250
X42250Y-34250
X42250Y-35250
X42250Y-36250
X42250Y-37250
X42250Y-38250
X42250Y-40250
X42250Y-42250
X43250Y-26250
X43250Y-30250
X43250Y-40250
X43250Y-42250
X44250Y-23250
X44250Y-24250
X44250Y-25250
X44250Y-43250
X44250Y-44250
X44250Y-45250
X44750Y-30500
X45000Y-30000
X45000Y-31000
X45250Y-23250
X45250Y-24250
X45250Y-30500
X45250Y-40250
X45250Y-44250
X45250Y-45250
X45285Y-38000
X46000Y-27250
X46000Y-33250
X46250Y-23250
X46250Y-24250
X46250Y-40250
X46250Y-44250
X46250Y-45250
X46500Y-30500
X46923Y-35827
X47000Y-28500
X47000Y-34500
X47250Y-23250
X47250Y-24250
X47250Y-30500
X47250Y-35000
X47250Y-40250
X47250Y-44250
X47250Y-45250
X47750Y-29000
X47750Y-35000
X47750Y-38000
X47750Y-41750
X48000Y-30500
X48250Y-23250
X48250Y-24250
X48250Y-29000
X48250Y-32500
X48250Y-35000
X48250Y-36650
X48250Y-40250
X48250Y-44250
X48250Y-45250
X48500Y-26500
X48500Y-28500
X48500Y-34500
X48750Y-28750
X48750Y-29250
X48750Y-30500
X48750Y-38500
X48750Y-42250
X49000Y-27000
X49000Y-27500
X49000Y-33500
X49250Y-23250
X49250Y-24250
X49250Y-26500
X49250Y-29000
X49250Y-44250
X49250Y-45250
X49500Y-30500
X49500Y-36300
X49750Y-32500
X49750Y-35000
X50250Y-23250
X50250Y-24250
X50250Y-26250
X50250Y-40250
X50250Y-41250
X50250Y-42250
X50250Y-43250
X50250Y-44250
X50250Y-45250
X50500Y-33750
X50500Y-34750
X50500Y-35750
X50750Y-27500
X50750Y-29250
X51000Y-33250
X51000Y-34250
X51000Y-35250
X51039Y-40000
X51039Y-43250
X51250Y-23250
X51250Y-24250
X51250Y-26250
X51250Y-45250
X51750Y-27500
X51869Y-40000
X51869Y-43250
X52000Y-29000
X52250Y-23250
X52250Y-30000
X52250Y-45250
X52750Y-24000
X52750Y-27500
X52750Y-29500
X52750Y-30000
X52950Y-39000
X53000Y-44550
X53250Y-23250
X53250Y-27750
X53250Y-29500
X53250Y-30000
X53250Y-33750
X53250Y-45250
X53539Y-40000
X53539Y-43250
X53750Y-24000
X53750Y-27750
X54250Y-23250
X54250Y-26164
X54250Y-45250
X54369Y-40000
X54369Y-43250
X54500Y-27750
X54750Y-24000
X54750Y-29750
X54750Y-31250
X55000Y-27500
X55250Y-23250
X55468Y-39000
X55500Y-27750
X55500Y-44550
X55750Y-24000
X55750Y-34500
X56000Y-27500
X56000Y-29250
X56039Y-40000
X56039Y-43250
X56250Y-23250
X56250Y-45250
X56500Y-28250
X56750Y-24000
X56750Y-29250
X56750Y-30000
X56869Y-40000
X56869Y-43250
X57250Y-23250
X57250Y-27500
X57250Y-29500
X57250Y-33750
X57250Y-45250
X57500Y-30000
X57750Y-24000
X57750Y-27500
X57750Y-29500
X57750Y-33250
X57850Y-28500
X57900Y-31150
X57968Y-39000
X58000Y-36750
X58000Y-44550
X58250Y-23250
X58250Y-45250
X58539Y-40000
X58539Y-43250
X58750Y-24000
X59000Y-36750
X59213Y-31787
X59250Y-23250
X59250Y-45250
X59287Y-30770
X59369Y-40000
X59369Y-43250
X59500Y-28500
X59750Y-36000
X60000Y-36750
X60250Y-23250
X60250Y-24250
X60250Y-26400
X60250Y-45250
X60450Y-39000
X60500Y-42250
X60900Y-26350
X61000Y-42750
X61250Y-23250
X61250Y-24250
X61250Y-33000
X61250Y-39750
X61250Y-44250
X61250Y-45250
X61500Y-28500
X61500Y-36000
X61750Y-33250
X61750Y-34250
X62000Y-28250
X62000Y-29000
X62000Y-33750
X62150Y-26350
X62150Y-27300
X62250Y-23250
X62250Y-24250
X62250Y-32250
X62250Y-45250
X62500Y-30250
X62750Y-29000
X62750Y-30000
X62750Y-44500
X63000Y-36000
X63250Y-23250
X63250Y-24250
X63250Y-29000
X63250Y-45250
X63750Y-44500
X64000Y-28000
X64000Y-35500
X64250Y-23250
X64250Y-24250
X64250Y-45250
X64750Y-35500
X64750Y-40250
X64750Y-44500
X64900Y-33000
X64900Y-34000
X65250Y-23250
X65250Y-24250
X65250Y-26250
X65250Y-31250
X65250Y-45250
X65500Y-42250
X65750Y-44500
X66164Y-42675
X66250Y-23250
X66250Y-24250
X66250Y-26250
X66250Y-31250
X66250Y-32250
X66250Y-45250
X66700Y-34250
X66750Y-29500
X66750Y-44500
X67250Y-23250
X67250Y-24250
X67250Y-25250
X67250Y-26250
X67250Y-32250
X67250Y-33250
X67250Y-34250
X67250Y-35250
X67250Y-36250
X67250Y-37250
X67250Y-38250
X67250Y-45250
X67350Y-31150
X67750Y-44500
X68000Y-34000
X68250Y-23250
X68250Y-24250
X68250Y-35250
X68250Y-36250
X68250Y-37250
X68250Y-38250
X68250Y-45250
X69250Y-23250
X69250Y-24250
X69250Y-25250
X69250Y-26250
X69250Y-29869
X69250Y-43250
X69250Y-44250
X69250Y-45250
X70250Y-23250
X70250Y-24250
X70250Y-25250
X70250Y-26250
X70250Y-31250
X70250Y-33250
X70250Y-34250
X70250Y-35250
X70250Y-36250
X70250Y-37250
X70250Y-38250
X70250Y-42250
X70250Y-43250
X70250Y-44250
X70250Y-45250
X70750Y-31250
X71250Y-26250
X71250Y-31250
X71250Y-35250
X71250Y-36250
X71250Y-37250
X71250Y-38250
X71250Y-42250
X71500Y-32750
X71500Y-33250
X71950Y-33350
X72016Y-33000
X72250Y-26250
X72250Y-38250
X72250Y-39250
X72250Y-40250
X72250Y-41250
X72250Y-42250
X73250Y-26250
X73250Y-27250
X73250Y-28250
X73250Y-29250
X73250Y-30250
X73250Y-31250
X73250Y-32250
X73250Y-33250
X73250Y-34250
X73250Y-35250
X73250Y-36250
X73250Y-37250
X73250Y-38250
X73250Y-39250
X73250Y-40250
X73250Y-41250
X73250Y-42250
X73750Y-26750
X73750Y-27750
X73750Y-28750
X73750Y-29750
X73750Y-30750
X73750Y-31750
X73750Y-32750
X73750Y-33750
X73750Y-34750
X73750Y-35750
X73750Y-36750
X73750Y-37750
T2
X71762Y-44250
X71978Y-43728
X71978Y-44772
X72500Y-43512
X72500Y-44988
X73022Y-43728
X73022Y-44772
X73238Y-44250
X71762Y-24500
X71978Y-23978
X71978Y-25022
X72500Y-23762
X72500Y-25238
X73022Y-23978
X73022Y-25022
X73238Y-24500
X41512Y-44250
X41728Y-43728
X41728Y-44772
X42250Y-43512
X42250Y-44988
X42772Y-43728
X42772Y-44772
X42988Y-44250
X41512Y-24500
X41728Y-23978
X41728Y-25022
X42250Y-23762
X42250Y-25238
X42772Y-23978
X42772Y-25022
X42988Y-24500
T3
X61250Y-30000
X61250Y-31500
X61250Y-32000
X61250Y-33750
X63250Y-31000
X63250Y-33000
X66414Y-40750
X66500Y-37250
X69116Y-37750
X69116Y-38250
T4
X67713Y-25750
X68500Y-25750
X62238Y-43750
X63026Y-43750
X63813Y-43750
X64600Y-43750
X65388Y-43750
X66175Y-43750
X66963Y-43750
X67750Y-43750
T5
X65750Y-25250
X65750Y-27140
X42110Y-29500
X44000Y-29500
X42110Y-39500
X44000Y-39500
X42110Y-31500
X44000Y-31500
X42110Y-41500
X44000Y-41500
X42110Y-27500
X44000Y-27500
X42110Y-33500
X44000Y-33500
T6
X72500Y-44250
X72500Y-24500
X42250Y-44250
X42250Y-24500
T0
M30
