M48
INCH
T1C0.0157
T2C0.0197
T3C0.0236
T4C0.0295
T5C0.0610
T6C0.0984
%
G90
G05
T1
X4.125Y-2.625
X4.125Y-2.725
X4.125Y-2.825
X4.125Y-2.925
X4.125Y-3.025
X4.125Y-3.125
X4.125Y-3.225
X4.125Y-3.325
X4.125Y-3.425
X4.125Y-3.525
X4.125Y-3.625
X4.125Y-3.725
X4.125Y-3.825
X4.125Y-3.925
X4.125Y-4.025
X4.125Y-4.125
X4.125Y-4.225
X4.225Y-2.625
X4.225Y-3.425
X4.225Y-3.525
X4.225Y-3.625
X4.225Y-3.725
X4.225Y-3.825
X4.225Y-4.025
X4.225Y-4.225
X4.325Y-2.625
X4.325Y-3.025
X4.325Y-4.025
X4.325Y-4.225
X4.425Y-2.325
X4.425Y-2.425
X4.425Y-2.525
X4.425Y-4.325
X4.425Y-4.425
X4.425Y-4.525
X4.475Y-3.05
X4.5Y-3.0
X4.5Y-3.1
X4.525Y-2.325
X4.525Y-2.425
X4.525Y-3.05
X4.525Y-4.025
X4.525Y-4.425
X4.525Y-4.525
X4.5285Y-3.8
X4.6Y-2.725
X4.6Y-3.325
X4.625Y-2.325
X4.625Y-2.425
X4.625Y-4.025
X4.625Y-4.425
X4.625Y-4.525
X4.65Y-3.05
X4.6923Y-3.5827
X4.7Y-2.85
X4.7Y-3.45
X4.725Y-2.325
X4.725Y-2.425
X4.725Y-3.05
X4.725Y-3.5
X4.725Y-4.025
X4.725Y-4.425
X4.725Y-4.525
X4.775Y-2.9
X4.775Y-3.5
X4.775Y-3.8
X4.775Y-4.175
X4.8Y-3.05
X4.825Y-2.325
X4.825Y-2.425
X4.825Y-2.9
X4.825Y-3.25
X4.825Y-3.5
X4.825Y-3.665
X4.825Y-4.025
X4.825Y-4.425
X4.825Y-4.525
X4.85Y-2.65
X4.85Y-2.85
X4.85Y-3.45
X4.875Y-2.875
X4.875Y-2.925
X4.875Y-3.05
X4.875Y-3.85
X4.875Y-4.225
X4.9Y-2.7
X4.9Y-2.75
X4.9Y-3.35
X4.925Y-2.325
X4.925Y-2.425
X4.925Y-2.65
X4.925Y-2.9
X4.925Y-4.425
X4.925Y-4.525
X4.95Y-3.05
X4.95Y-3.63
X4.975Y-3.25
X4.975Y-3.5
X5.025Y-2.325
X5.025Y-2.425
X5.025Y-2.625
X5.025Y-4.025
X5.025Y-4.125
X5.025Y-4.225
X5.025Y-4.325
X5.025Y-4.425
X5.025Y-4.525
X5.05Y-3.375
X5.05Y-3.475
X5.05Y-3.575
X5.075Y-2.75
X5.075Y-2.925
X5.1Y-3.325
X5.1Y-3.425
X5.1Y-3.525
X5.1039Y-4.0
X5.1039Y-4.325
X5.125Y-2.325
X5.125Y-2.425
X5.125Y-2.625
X5.125Y-4.525
X5.175Y-2.75
X5.1869Y-4.0
X5.1869Y-4.325
X5.2Y-2.9
X5.225Y-2.325
X5.225Y-3.0
X5.225Y-4.525
X5.275Y-2.4
X5.275Y-2.75
X5.275Y-2.95
X5.275Y-3.0
X5.295Y-3.9
X5.3Y-4.455
X5.325Y-2.325
X5.325Y-2.775
X5.325Y-2.95
X5.325Y-3.0
X5.325Y-3.375
X5.325Y-4.525
X5.3539Y-4.0
X5.3539Y-4.325
X5.375Y-2.4
X5.375Y-2.775
X5.425Y-2.325
X5.425Y-2.6164
X5.425Y-4.525
X5.4369Y-4.0
X5.4369Y-4.325
X5.45Y-2.775
X5.475Y-2.4
X5.475Y-2.975
X5.475Y-3.125
X5.5Y-2.75
X5.525Y-2.325
X5.5469Y-3.9
X5.55Y-2.775
X5.55Y-4.455
X5.575Y-2.4
X5.575Y-3.45
X5.6Y-2.75
X5.6Y-2.925
X5.6039Y-4.0
X5.6039Y-4.325
X5.625Y-2.325
X5.625Y-4.525
X5.65Y-2.825
X5.675Y-2.4
X5.675Y-2.925
X5.675Y-3.0
X5.6869Y-4.0
X5.6869Y-4.325
X5.725Y-2.325
X5.725Y-2.75
X5.725Y-2.95
X5.725Y-3.375
X5.725Y-4.525
X5.75Y-3.0
X5.775Y-2.4
X5.775Y-2.75
X5.775Y-2.95
X5.775Y-3.325
X5.785Y-2.85
X5.79Y-3.115
X5.7969Y-3.9
X5.8Y-3.675
X5.8Y-4.455
X5.825Y-2.325
X5.825Y-4.525
X5.8539Y-4.0
X5.8539Y-4.325
X5.875Y-2.4
X5.9Y-3.675
X5.9213Y-3.1787
X5.925Y-2.325
X5.925Y-4.525
X5.9287Y-3.077
X5.9369Y-4.0
X5.9369Y-4.325
X5.95Y-2.85
X5.975Y-3.6
X6.0Y-3.675
X6.025Y-2.325
X6.025Y-2.425
X6.025Y-2.64
X6.025Y-4.525
X6.045Y-3.9
X6.05Y-4.225
X6.09Y-2.635
X6.1Y-4.275
X6.125Y-2.325
X6.125Y-2.425
X6.125Y-3.3
X6.125Y-3.975
X6.125Y-4.425
X6.125Y-4.525
X6.15Y-2.85
X6.15Y-3.6
X6.175Y-3.325
X6.175Y-3.425
X6.2Y-2.825
X6.2Y-2.9
X6.2Y-3.375
X6.215Y-2.635
X6.215Y-2.73
X6.225Y-2.325
X6.225Y-2.425
X6.225Y-3.225
X6.225Y-4.525
X6.25Y-3.025
X6.275Y-2.9
X6.275Y-3.0
X6.275Y-4.45
X6.3Y-3.6
X6.325Y-2.325
X6.325Y-2.425
X6.325Y-2.9
X6.325Y-4.525
X6.375Y-4.45
X6.4Y-2.8
X6.4Y-3.55
X6.425Y-2.325
X6.425Y-2.425
X6.425Y-4.525
X6.475Y-3.55
X6.475Y-4.025
X6.475Y-4.45
X6.49Y-3.3
X6.49Y-3.4
X6.525Y-2.325
X6.525Y-2.425
X6.525Y-2.625
X6.525Y-3.125
X6.525Y-4.525
X6.55Y-4.225
X6.575Y-4.45
X6.6164Y-4.2675
X6.625Y-2.325
X6.625Y-2.425
X6.625Y-2.625
X6.625Y-3.125
X6.625Y-3.225
X6.625Y-4.525
X6.67Y-3.425
X6.675Y-2.95
X6.675Y-4.45
X6.725Y-2.325
X6.725Y-2.425
X6.725Y-2.525
X6.725Y-2.625
X6.725Y-3.225
X6.725Y-3.325
X6.725Y-3.425
X6.725Y-3.525
X6.725Y-3.625
X6.725Y-3.725
X6.725Y-3.825
X6.725Y-4.525
X6.735Y-3.115
X6.775Y-4.45
X6.8Y-3.4
X6.825Y-2.325
X6.825Y-2.425
X6.825Y-3.525
X6.825Y-3.625
X6.825Y-3.725
X6.825Y-3.825
X6.825Y-4.525
X6.925Y-2.325
X6.925Y-2.425
X6.925Y-2.525
X6.925Y-2.625
X6.925Y-2.9869
X6.925Y-4.325
X6.925Y-4.425
X6.925Y-4.525
X7.025Y-2.325
X7.025Y-2.425
X7.025Y-2.525
X7.025Y-2.625
X7.025Y-3.125
X7.025Y-3.325
X7.025Y-3.425
X7.025Y-3.525
X7.025Y-3.625
X7.025Y-3.725
X7.025Y-3.825
X7.025Y-4.225
X7.025Y-4.325
X7.025Y-4.425
X7.025Y-4.525
X7.075Y-3.125
X7.125Y-2.625
X7.125Y-3.125
X7.125Y-3.525
X7.125Y-3.625
X7.125Y-3.725
X7.125Y-3.825
X7.125Y-4.225
X7.15Y-3.275
X7.15Y-3.325
X7.195Y-3.335
X7.2016Y-3.3
X7.225Y-2.625
X7.225Y-3.825
X7.225Y-3.925
X7.225Y-4.025
X7.225Y-4.125
X7.225Y-4.225
X7.325Y-2.625
X7.325Y-2.725
X7.325Y-2.825
X7.325Y-2.925
X7.325Y-3.025
X7.325Y-3.125
X7.325Y-3.225
X7.325Y-3.325
X7.325Y-3.425
X7.325Y-3.525
X7.325Y-3.625
X7.325Y-3.725
X7.325Y-3.825
X7.325Y-3.925
X7.325Y-4.025
X7.325Y-4.125
X7.325Y-4.225
X7.375Y-2.675
X7.375Y-2.775
X7.375Y-2.875
X7.375Y-2.975
X7.375Y-3.075
X7.375Y-3.175
X7.375Y-3.275
X7.375Y-3.375
X7.375Y-3.475
X7.375Y-3.575
X7.375Y-3.675
X7.375Y-3.775
T2
X7.1762Y-4.425
X7.1978Y-4.3728
X7.1978Y-4.4772
X7.25Y-4.3512
X7.25Y-4.4988
X7.3022Y-4.3728
X7.3022Y-4.4772
X7.3238Y-4.425
X4.1512Y-2.45
X4.1728Y-2.3978
X4.1728Y-2.5022
X4.225Y-2.3762
X4.225Y-2.5238
X4.2772Y-2.3978
X4.2772Y-2.5022
X4.2988Y-2.45
X7.1762Y-2.45
X7.1978Y-2.3978
X7.1978Y-2.5022
X7.25Y-2.3762
X7.25Y-2.5238
X7.3022Y-2.3978
X7.3022Y-2.5022
X7.3238Y-2.45
X4.1512Y-4.425
X4.1728Y-4.3728
X4.1728Y-4.4772
X4.225Y-4.3512
X4.225Y-4.4988
X4.2772Y-4.3728
X4.2772Y-4.4772
X4.2988Y-4.425
T3
X6.125Y-3.0
X6.125Y-3.15
X6.125Y-3.2
X6.125Y-3.375
X6.325Y-3.1
X6.325Y-3.3
X6.6414Y-4.075
X6.65Y-3.725
X6.9116Y-3.775
X6.9116Y-3.825
T4
X6.7713Y-2.575
X6.85Y-2.575
X6.2238Y-4.375
X6.3026Y-4.375
X6.3813Y-4.375
X6.46Y-4.375
X6.5388Y-4.375
X6.6175Y-4.375
X6.6963Y-4.375
X6.775Y-4.375
T5
X4.211Y-2.75
X4.4Y-2.75
X4.211Y-3.15
X4.4Y-3.15
X4.211Y-3.35
X4.4Y-3.35
X4.211Y-4.15
X4.4Y-4.15
X4.211Y-2.95
X4.4Y-2.95
X4.211Y-3.95
X4.4Y-3.95
X6.575Y-2.525
X6.575Y-2.714
T6
X4.225Y-4.425
X7.25Y-4.425
X4.225Y-2.45
X7.25Y-2.45
T0
M30
