G04 #@! TF.GenerationSoftware,KiCad,Pcbnew,5.1.5+dfsg1-2build2*
G04 #@! TF.CreationDate,2020-07-01T20:14:48+02:00*
G04 #@! TF.ProjectId,spinnaker,7370696e-6e61-46b6-9572-2e6b69636164,rev?*
G04 #@! TF.SameCoordinates,Original*
G04 #@! TF.FileFunction,Paste,Bot*
G04 #@! TF.FilePolarity,Positive*
%FSLAX46Y46*%
G04 Gerber Fmt 4.6, Leading zero omitted, Abs format (unit mm)*
G04 Created by KiCad (PCBNEW 5.1.5+dfsg1-2build2) date 2020-07-01 20:14:48*
%MOMM*%
%LPD*%
G04 APERTURE LIST*
%ADD10R,1.500000X2.000000*%
%ADD11R,3.800000X2.000000*%
%ADD12C,0.100000*%
G04 APERTURE END LIST*
D10*
X133110000Y-78080000D03*
X128510000Y-78080000D03*
X130810000Y-78080000D03*
D11*
X130810000Y-71780000D03*
D12*
G36*
X131290142Y-110306174D02*
G01*
X131313803Y-110309684D01*
X131337007Y-110315496D01*
X131359529Y-110323554D01*
X131381153Y-110333782D01*
X131401670Y-110346079D01*
X131420883Y-110360329D01*
X131438607Y-110376393D01*
X131454671Y-110394117D01*
X131468921Y-110413330D01*
X131481218Y-110433847D01*
X131491446Y-110455471D01*
X131499504Y-110477993D01*
X131505316Y-110501197D01*
X131508826Y-110524858D01*
X131510000Y-110548750D01*
X131510000Y-111036250D01*
X131508826Y-111060142D01*
X131505316Y-111083803D01*
X131499504Y-111107007D01*
X131491446Y-111129529D01*
X131481218Y-111151153D01*
X131468921Y-111171670D01*
X131454671Y-111190883D01*
X131438607Y-111208607D01*
X131420883Y-111224671D01*
X131401670Y-111238921D01*
X131381153Y-111251218D01*
X131359529Y-111261446D01*
X131337007Y-111269504D01*
X131313803Y-111275316D01*
X131290142Y-111278826D01*
X131266250Y-111280000D01*
X130353750Y-111280000D01*
X130329858Y-111278826D01*
X130306197Y-111275316D01*
X130282993Y-111269504D01*
X130260471Y-111261446D01*
X130238847Y-111251218D01*
X130218330Y-111238921D01*
X130199117Y-111224671D01*
X130181393Y-111208607D01*
X130165329Y-111190883D01*
X130151079Y-111171670D01*
X130138782Y-111151153D01*
X130128554Y-111129529D01*
X130120496Y-111107007D01*
X130114684Y-111083803D01*
X130111174Y-111060142D01*
X130110000Y-111036250D01*
X130110000Y-110548750D01*
X130111174Y-110524858D01*
X130114684Y-110501197D01*
X130120496Y-110477993D01*
X130128554Y-110455471D01*
X130138782Y-110433847D01*
X130151079Y-110413330D01*
X130165329Y-110394117D01*
X130181393Y-110376393D01*
X130199117Y-110360329D01*
X130218330Y-110346079D01*
X130238847Y-110333782D01*
X130260471Y-110323554D01*
X130282993Y-110315496D01*
X130306197Y-110309684D01*
X130329858Y-110306174D01*
X130353750Y-110305000D01*
X131266250Y-110305000D01*
X131290142Y-110306174D01*
G37*
G36*
X131290142Y-108431174D02*
G01*
X131313803Y-108434684D01*
X131337007Y-108440496D01*
X131359529Y-108448554D01*
X131381153Y-108458782D01*
X131401670Y-108471079D01*
X131420883Y-108485329D01*
X131438607Y-108501393D01*
X131454671Y-108519117D01*
X131468921Y-108538330D01*
X131481218Y-108558847D01*
X131491446Y-108580471D01*
X131499504Y-108602993D01*
X131505316Y-108626197D01*
X131508826Y-108649858D01*
X131510000Y-108673750D01*
X131510000Y-109161250D01*
X131508826Y-109185142D01*
X131505316Y-109208803D01*
X131499504Y-109232007D01*
X131491446Y-109254529D01*
X131481218Y-109276153D01*
X131468921Y-109296670D01*
X131454671Y-109315883D01*
X131438607Y-109333607D01*
X131420883Y-109349671D01*
X131401670Y-109363921D01*
X131381153Y-109376218D01*
X131359529Y-109386446D01*
X131337007Y-109394504D01*
X131313803Y-109400316D01*
X131290142Y-109403826D01*
X131266250Y-109405000D01*
X130353750Y-109405000D01*
X130329858Y-109403826D01*
X130306197Y-109400316D01*
X130282993Y-109394504D01*
X130260471Y-109386446D01*
X130238847Y-109376218D01*
X130218330Y-109363921D01*
X130199117Y-109349671D01*
X130181393Y-109333607D01*
X130165329Y-109315883D01*
X130151079Y-109296670D01*
X130138782Y-109276153D01*
X130128554Y-109254529D01*
X130120496Y-109232007D01*
X130114684Y-109208803D01*
X130111174Y-109185142D01*
X130110000Y-109161250D01*
X130110000Y-108673750D01*
X130111174Y-108649858D01*
X130114684Y-108626197D01*
X130120496Y-108602993D01*
X130128554Y-108580471D01*
X130138782Y-108558847D01*
X130151079Y-108538330D01*
X130165329Y-108519117D01*
X130181393Y-108501393D01*
X130199117Y-108485329D01*
X130218330Y-108471079D01*
X130238847Y-108458782D01*
X130260471Y-108448554D01*
X130282993Y-108440496D01*
X130306197Y-108434684D01*
X130329858Y-108431174D01*
X130353750Y-108430000D01*
X131266250Y-108430000D01*
X131290142Y-108431174D01*
G37*
G36*
X123155142Y-70421174D02*
G01*
X123178803Y-70424684D01*
X123202007Y-70430496D01*
X123224529Y-70438554D01*
X123246153Y-70448782D01*
X123266670Y-70461079D01*
X123285883Y-70475329D01*
X123303607Y-70491393D01*
X123319671Y-70509117D01*
X123333921Y-70528330D01*
X123346218Y-70548847D01*
X123356446Y-70570471D01*
X123364504Y-70592993D01*
X123370316Y-70616197D01*
X123373826Y-70639858D01*
X123375000Y-70663750D01*
X123375000Y-71576250D01*
X123373826Y-71600142D01*
X123370316Y-71623803D01*
X123364504Y-71647007D01*
X123356446Y-71669529D01*
X123346218Y-71691153D01*
X123333921Y-71711670D01*
X123319671Y-71730883D01*
X123303607Y-71748607D01*
X123285883Y-71764671D01*
X123266670Y-71778921D01*
X123246153Y-71791218D01*
X123224529Y-71801446D01*
X123202007Y-71809504D01*
X123178803Y-71815316D01*
X123155142Y-71818826D01*
X123131250Y-71820000D01*
X122643750Y-71820000D01*
X122619858Y-71818826D01*
X122596197Y-71815316D01*
X122572993Y-71809504D01*
X122550471Y-71801446D01*
X122528847Y-71791218D01*
X122508330Y-71778921D01*
X122489117Y-71764671D01*
X122471393Y-71748607D01*
X122455329Y-71730883D01*
X122441079Y-71711670D01*
X122428782Y-71691153D01*
X122418554Y-71669529D01*
X122410496Y-71647007D01*
X122404684Y-71623803D01*
X122401174Y-71600142D01*
X122400000Y-71576250D01*
X122400000Y-70663750D01*
X122401174Y-70639858D01*
X122404684Y-70616197D01*
X122410496Y-70592993D01*
X122418554Y-70570471D01*
X122428782Y-70548847D01*
X122441079Y-70528330D01*
X122455329Y-70509117D01*
X122471393Y-70491393D01*
X122489117Y-70475329D01*
X122508330Y-70461079D01*
X122528847Y-70448782D01*
X122550471Y-70438554D01*
X122572993Y-70430496D01*
X122596197Y-70424684D01*
X122619858Y-70421174D01*
X122643750Y-70420000D01*
X123131250Y-70420000D01*
X123155142Y-70421174D01*
G37*
G36*
X125030142Y-70421174D02*
G01*
X125053803Y-70424684D01*
X125077007Y-70430496D01*
X125099529Y-70438554D01*
X125121153Y-70448782D01*
X125141670Y-70461079D01*
X125160883Y-70475329D01*
X125178607Y-70491393D01*
X125194671Y-70509117D01*
X125208921Y-70528330D01*
X125221218Y-70548847D01*
X125231446Y-70570471D01*
X125239504Y-70592993D01*
X125245316Y-70616197D01*
X125248826Y-70639858D01*
X125250000Y-70663750D01*
X125250000Y-71576250D01*
X125248826Y-71600142D01*
X125245316Y-71623803D01*
X125239504Y-71647007D01*
X125231446Y-71669529D01*
X125221218Y-71691153D01*
X125208921Y-71711670D01*
X125194671Y-71730883D01*
X125178607Y-71748607D01*
X125160883Y-71764671D01*
X125141670Y-71778921D01*
X125121153Y-71791218D01*
X125099529Y-71801446D01*
X125077007Y-71809504D01*
X125053803Y-71815316D01*
X125030142Y-71818826D01*
X125006250Y-71820000D01*
X124518750Y-71820000D01*
X124494858Y-71818826D01*
X124471197Y-71815316D01*
X124447993Y-71809504D01*
X124425471Y-71801446D01*
X124403847Y-71791218D01*
X124383330Y-71778921D01*
X124364117Y-71764671D01*
X124346393Y-71748607D01*
X124330329Y-71730883D01*
X124316079Y-71711670D01*
X124303782Y-71691153D01*
X124293554Y-71669529D01*
X124285496Y-71647007D01*
X124279684Y-71623803D01*
X124276174Y-71600142D01*
X124275000Y-71576250D01*
X124275000Y-70663750D01*
X124276174Y-70639858D01*
X124279684Y-70616197D01*
X124285496Y-70592993D01*
X124293554Y-70570471D01*
X124303782Y-70548847D01*
X124316079Y-70528330D01*
X124330329Y-70509117D01*
X124346393Y-70491393D01*
X124364117Y-70475329D01*
X124383330Y-70461079D01*
X124403847Y-70448782D01*
X124425471Y-70438554D01*
X124447993Y-70430496D01*
X124471197Y-70424684D01*
X124494858Y-70421174D01*
X124518750Y-70420000D01*
X125006250Y-70420000D01*
X125030142Y-70421174D01*
G37*
G36*
X166335142Y-86296174D02*
G01*
X166358803Y-86299684D01*
X166382007Y-86305496D01*
X166404529Y-86313554D01*
X166426153Y-86323782D01*
X166446670Y-86336079D01*
X166465883Y-86350329D01*
X166483607Y-86366393D01*
X166499671Y-86384117D01*
X166513921Y-86403330D01*
X166526218Y-86423847D01*
X166536446Y-86445471D01*
X166544504Y-86467993D01*
X166550316Y-86491197D01*
X166553826Y-86514858D01*
X166555000Y-86538750D01*
X166555000Y-87451250D01*
X166553826Y-87475142D01*
X166550316Y-87498803D01*
X166544504Y-87522007D01*
X166536446Y-87544529D01*
X166526218Y-87566153D01*
X166513921Y-87586670D01*
X166499671Y-87605883D01*
X166483607Y-87623607D01*
X166465883Y-87639671D01*
X166446670Y-87653921D01*
X166426153Y-87666218D01*
X166404529Y-87676446D01*
X166382007Y-87684504D01*
X166358803Y-87690316D01*
X166335142Y-87693826D01*
X166311250Y-87695000D01*
X165823750Y-87695000D01*
X165799858Y-87693826D01*
X165776197Y-87690316D01*
X165752993Y-87684504D01*
X165730471Y-87676446D01*
X165708847Y-87666218D01*
X165688330Y-87653921D01*
X165669117Y-87639671D01*
X165651393Y-87623607D01*
X165635329Y-87605883D01*
X165621079Y-87586670D01*
X165608782Y-87566153D01*
X165598554Y-87544529D01*
X165590496Y-87522007D01*
X165584684Y-87498803D01*
X165581174Y-87475142D01*
X165580000Y-87451250D01*
X165580000Y-86538750D01*
X165581174Y-86514858D01*
X165584684Y-86491197D01*
X165590496Y-86467993D01*
X165598554Y-86445471D01*
X165608782Y-86423847D01*
X165621079Y-86403330D01*
X165635329Y-86384117D01*
X165651393Y-86366393D01*
X165669117Y-86350329D01*
X165688330Y-86336079D01*
X165708847Y-86323782D01*
X165730471Y-86313554D01*
X165752993Y-86305496D01*
X165776197Y-86299684D01*
X165799858Y-86296174D01*
X165823750Y-86295000D01*
X166311250Y-86295000D01*
X166335142Y-86296174D01*
G37*
G36*
X168210142Y-86296174D02*
G01*
X168233803Y-86299684D01*
X168257007Y-86305496D01*
X168279529Y-86313554D01*
X168301153Y-86323782D01*
X168321670Y-86336079D01*
X168340883Y-86350329D01*
X168358607Y-86366393D01*
X168374671Y-86384117D01*
X168388921Y-86403330D01*
X168401218Y-86423847D01*
X168411446Y-86445471D01*
X168419504Y-86467993D01*
X168425316Y-86491197D01*
X168428826Y-86514858D01*
X168430000Y-86538750D01*
X168430000Y-87451250D01*
X168428826Y-87475142D01*
X168425316Y-87498803D01*
X168419504Y-87522007D01*
X168411446Y-87544529D01*
X168401218Y-87566153D01*
X168388921Y-87586670D01*
X168374671Y-87605883D01*
X168358607Y-87623607D01*
X168340883Y-87639671D01*
X168321670Y-87653921D01*
X168301153Y-87666218D01*
X168279529Y-87676446D01*
X168257007Y-87684504D01*
X168233803Y-87690316D01*
X168210142Y-87693826D01*
X168186250Y-87695000D01*
X167698750Y-87695000D01*
X167674858Y-87693826D01*
X167651197Y-87690316D01*
X167627993Y-87684504D01*
X167605471Y-87676446D01*
X167583847Y-87666218D01*
X167563330Y-87653921D01*
X167544117Y-87639671D01*
X167526393Y-87623607D01*
X167510329Y-87605883D01*
X167496079Y-87586670D01*
X167483782Y-87566153D01*
X167473554Y-87544529D01*
X167465496Y-87522007D01*
X167459684Y-87498803D01*
X167456174Y-87475142D01*
X167455000Y-87451250D01*
X167455000Y-86538750D01*
X167456174Y-86514858D01*
X167459684Y-86491197D01*
X167465496Y-86467993D01*
X167473554Y-86445471D01*
X167483782Y-86423847D01*
X167496079Y-86403330D01*
X167510329Y-86384117D01*
X167526393Y-86366393D01*
X167544117Y-86350329D01*
X167563330Y-86336079D01*
X167583847Y-86323782D01*
X167605471Y-86313554D01*
X167627993Y-86305496D01*
X167651197Y-86299684D01*
X167674858Y-86296174D01*
X167698750Y-86295000D01*
X168186250Y-86295000D01*
X168210142Y-86296174D01*
G37*
G36*
X158595142Y-79826174D02*
G01*
X158618803Y-79829684D01*
X158642007Y-79835496D01*
X158664529Y-79843554D01*
X158686153Y-79853782D01*
X158706670Y-79866079D01*
X158725883Y-79880329D01*
X158743607Y-79896393D01*
X158759671Y-79914117D01*
X158773921Y-79933330D01*
X158786218Y-79953847D01*
X158796446Y-79975471D01*
X158804504Y-79997993D01*
X158810316Y-80021197D01*
X158813826Y-80044858D01*
X158815000Y-80068750D01*
X158815000Y-80556250D01*
X158813826Y-80580142D01*
X158810316Y-80603803D01*
X158804504Y-80627007D01*
X158796446Y-80649529D01*
X158786218Y-80671153D01*
X158773921Y-80691670D01*
X158759671Y-80710883D01*
X158743607Y-80728607D01*
X158725883Y-80744671D01*
X158706670Y-80758921D01*
X158686153Y-80771218D01*
X158664529Y-80781446D01*
X158642007Y-80789504D01*
X158618803Y-80795316D01*
X158595142Y-80798826D01*
X158571250Y-80800000D01*
X157658750Y-80800000D01*
X157634858Y-80798826D01*
X157611197Y-80795316D01*
X157587993Y-80789504D01*
X157565471Y-80781446D01*
X157543847Y-80771218D01*
X157523330Y-80758921D01*
X157504117Y-80744671D01*
X157486393Y-80728607D01*
X157470329Y-80710883D01*
X157456079Y-80691670D01*
X157443782Y-80671153D01*
X157433554Y-80649529D01*
X157425496Y-80627007D01*
X157419684Y-80603803D01*
X157416174Y-80580142D01*
X157415000Y-80556250D01*
X157415000Y-80068750D01*
X157416174Y-80044858D01*
X157419684Y-80021197D01*
X157425496Y-79997993D01*
X157433554Y-79975471D01*
X157443782Y-79953847D01*
X157456079Y-79933330D01*
X157470329Y-79914117D01*
X157486393Y-79896393D01*
X157504117Y-79880329D01*
X157523330Y-79866079D01*
X157543847Y-79853782D01*
X157565471Y-79843554D01*
X157587993Y-79835496D01*
X157611197Y-79829684D01*
X157634858Y-79826174D01*
X157658750Y-79825000D01*
X158571250Y-79825000D01*
X158595142Y-79826174D01*
G37*
G36*
X158595142Y-77951174D02*
G01*
X158618803Y-77954684D01*
X158642007Y-77960496D01*
X158664529Y-77968554D01*
X158686153Y-77978782D01*
X158706670Y-77991079D01*
X158725883Y-78005329D01*
X158743607Y-78021393D01*
X158759671Y-78039117D01*
X158773921Y-78058330D01*
X158786218Y-78078847D01*
X158796446Y-78100471D01*
X158804504Y-78122993D01*
X158810316Y-78146197D01*
X158813826Y-78169858D01*
X158815000Y-78193750D01*
X158815000Y-78681250D01*
X158813826Y-78705142D01*
X158810316Y-78728803D01*
X158804504Y-78752007D01*
X158796446Y-78774529D01*
X158786218Y-78796153D01*
X158773921Y-78816670D01*
X158759671Y-78835883D01*
X158743607Y-78853607D01*
X158725883Y-78869671D01*
X158706670Y-78883921D01*
X158686153Y-78896218D01*
X158664529Y-78906446D01*
X158642007Y-78914504D01*
X158618803Y-78920316D01*
X158595142Y-78923826D01*
X158571250Y-78925000D01*
X157658750Y-78925000D01*
X157634858Y-78923826D01*
X157611197Y-78920316D01*
X157587993Y-78914504D01*
X157565471Y-78906446D01*
X157543847Y-78896218D01*
X157523330Y-78883921D01*
X157504117Y-78869671D01*
X157486393Y-78853607D01*
X157470329Y-78835883D01*
X157456079Y-78816670D01*
X157443782Y-78796153D01*
X157433554Y-78774529D01*
X157425496Y-78752007D01*
X157419684Y-78728803D01*
X157416174Y-78705142D01*
X157415000Y-78681250D01*
X157415000Y-78193750D01*
X157416174Y-78169858D01*
X157419684Y-78146197D01*
X157425496Y-78122993D01*
X157433554Y-78100471D01*
X157443782Y-78078847D01*
X157456079Y-78058330D01*
X157470329Y-78039117D01*
X157486393Y-78021393D01*
X157504117Y-78005329D01*
X157523330Y-77991079D01*
X157543847Y-77978782D01*
X157565471Y-77968554D01*
X157587993Y-77960496D01*
X157611197Y-77954684D01*
X157634858Y-77951174D01*
X157658750Y-77950000D01*
X158571250Y-77950000D01*
X158595142Y-77951174D01*
G37*
G36*
X161225142Y-100901174D02*
G01*
X161248803Y-100904684D01*
X161272007Y-100910496D01*
X161294529Y-100918554D01*
X161316153Y-100928782D01*
X161336670Y-100941079D01*
X161355883Y-100955329D01*
X161373607Y-100971393D01*
X161389671Y-100989117D01*
X161403921Y-101008330D01*
X161416218Y-101028847D01*
X161426446Y-101050471D01*
X161434504Y-101072993D01*
X161440316Y-101096197D01*
X161443826Y-101119858D01*
X161445000Y-101143750D01*
X161445000Y-102056250D01*
X161443826Y-102080142D01*
X161440316Y-102103803D01*
X161434504Y-102127007D01*
X161426446Y-102149529D01*
X161416218Y-102171153D01*
X161403921Y-102191670D01*
X161389671Y-102210883D01*
X161373607Y-102228607D01*
X161355883Y-102244671D01*
X161336670Y-102258921D01*
X161316153Y-102271218D01*
X161294529Y-102281446D01*
X161272007Y-102289504D01*
X161248803Y-102295316D01*
X161225142Y-102298826D01*
X161201250Y-102300000D01*
X160713750Y-102300000D01*
X160689858Y-102298826D01*
X160666197Y-102295316D01*
X160642993Y-102289504D01*
X160620471Y-102281446D01*
X160598847Y-102271218D01*
X160578330Y-102258921D01*
X160559117Y-102244671D01*
X160541393Y-102228607D01*
X160525329Y-102210883D01*
X160511079Y-102191670D01*
X160498782Y-102171153D01*
X160488554Y-102149529D01*
X160480496Y-102127007D01*
X160474684Y-102103803D01*
X160471174Y-102080142D01*
X160470000Y-102056250D01*
X160470000Y-101143750D01*
X160471174Y-101119858D01*
X160474684Y-101096197D01*
X160480496Y-101072993D01*
X160488554Y-101050471D01*
X160498782Y-101028847D01*
X160511079Y-101008330D01*
X160525329Y-100989117D01*
X160541393Y-100971393D01*
X160559117Y-100955329D01*
X160578330Y-100941079D01*
X160598847Y-100928782D01*
X160620471Y-100918554D01*
X160642993Y-100910496D01*
X160666197Y-100904684D01*
X160689858Y-100901174D01*
X160713750Y-100900000D01*
X161201250Y-100900000D01*
X161225142Y-100901174D01*
G37*
G36*
X159350142Y-100901174D02*
G01*
X159373803Y-100904684D01*
X159397007Y-100910496D01*
X159419529Y-100918554D01*
X159441153Y-100928782D01*
X159461670Y-100941079D01*
X159480883Y-100955329D01*
X159498607Y-100971393D01*
X159514671Y-100989117D01*
X159528921Y-101008330D01*
X159541218Y-101028847D01*
X159551446Y-101050471D01*
X159559504Y-101072993D01*
X159565316Y-101096197D01*
X159568826Y-101119858D01*
X159570000Y-101143750D01*
X159570000Y-102056250D01*
X159568826Y-102080142D01*
X159565316Y-102103803D01*
X159559504Y-102127007D01*
X159551446Y-102149529D01*
X159541218Y-102171153D01*
X159528921Y-102191670D01*
X159514671Y-102210883D01*
X159498607Y-102228607D01*
X159480883Y-102244671D01*
X159461670Y-102258921D01*
X159441153Y-102271218D01*
X159419529Y-102281446D01*
X159397007Y-102289504D01*
X159373803Y-102295316D01*
X159350142Y-102298826D01*
X159326250Y-102300000D01*
X158838750Y-102300000D01*
X158814858Y-102298826D01*
X158791197Y-102295316D01*
X158767993Y-102289504D01*
X158745471Y-102281446D01*
X158723847Y-102271218D01*
X158703330Y-102258921D01*
X158684117Y-102244671D01*
X158666393Y-102228607D01*
X158650329Y-102210883D01*
X158636079Y-102191670D01*
X158623782Y-102171153D01*
X158613554Y-102149529D01*
X158605496Y-102127007D01*
X158599684Y-102103803D01*
X158596174Y-102080142D01*
X158595000Y-102056250D01*
X158595000Y-101143750D01*
X158596174Y-101119858D01*
X158599684Y-101096197D01*
X158605496Y-101072993D01*
X158613554Y-101050471D01*
X158623782Y-101028847D01*
X158636079Y-101008330D01*
X158650329Y-100989117D01*
X158666393Y-100971393D01*
X158684117Y-100955329D01*
X158703330Y-100941079D01*
X158723847Y-100928782D01*
X158745471Y-100918554D01*
X158767993Y-100910496D01*
X158791197Y-100904684D01*
X158814858Y-100901174D01*
X158838750Y-100900000D01*
X159326250Y-100900000D01*
X159350142Y-100901174D01*
G37*
G36*
X123155142Y-85661174D02*
G01*
X123178803Y-85664684D01*
X123202007Y-85670496D01*
X123224529Y-85678554D01*
X123246153Y-85688782D01*
X123266670Y-85701079D01*
X123285883Y-85715329D01*
X123303607Y-85731393D01*
X123319671Y-85749117D01*
X123333921Y-85768330D01*
X123346218Y-85788847D01*
X123356446Y-85810471D01*
X123364504Y-85832993D01*
X123370316Y-85856197D01*
X123373826Y-85879858D01*
X123375000Y-85903750D01*
X123375000Y-86816250D01*
X123373826Y-86840142D01*
X123370316Y-86863803D01*
X123364504Y-86887007D01*
X123356446Y-86909529D01*
X123346218Y-86931153D01*
X123333921Y-86951670D01*
X123319671Y-86970883D01*
X123303607Y-86988607D01*
X123285883Y-87004671D01*
X123266670Y-87018921D01*
X123246153Y-87031218D01*
X123224529Y-87041446D01*
X123202007Y-87049504D01*
X123178803Y-87055316D01*
X123155142Y-87058826D01*
X123131250Y-87060000D01*
X122643750Y-87060000D01*
X122619858Y-87058826D01*
X122596197Y-87055316D01*
X122572993Y-87049504D01*
X122550471Y-87041446D01*
X122528847Y-87031218D01*
X122508330Y-87018921D01*
X122489117Y-87004671D01*
X122471393Y-86988607D01*
X122455329Y-86970883D01*
X122441079Y-86951670D01*
X122428782Y-86931153D01*
X122418554Y-86909529D01*
X122410496Y-86887007D01*
X122404684Y-86863803D01*
X122401174Y-86840142D01*
X122400000Y-86816250D01*
X122400000Y-85903750D01*
X122401174Y-85879858D01*
X122404684Y-85856197D01*
X122410496Y-85832993D01*
X122418554Y-85810471D01*
X122428782Y-85788847D01*
X122441079Y-85768330D01*
X122455329Y-85749117D01*
X122471393Y-85731393D01*
X122489117Y-85715329D01*
X122508330Y-85701079D01*
X122528847Y-85688782D01*
X122550471Y-85678554D01*
X122572993Y-85670496D01*
X122596197Y-85664684D01*
X122619858Y-85661174D01*
X122643750Y-85660000D01*
X123131250Y-85660000D01*
X123155142Y-85661174D01*
G37*
G36*
X125030142Y-85661174D02*
G01*
X125053803Y-85664684D01*
X125077007Y-85670496D01*
X125099529Y-85678554D01*
X125121153Y-85688782D01*
X125141670Y-85701079D01*
X125160883Y-85715329D01*
X125178607Y-85731393D01*
X125194671Y-85749117D01*
X125208921Y-85768330D01*
X125221218Y-85788847D01*
X125231446Y-85810471D01*
X125239504Y-85832993D01*
X125245316Y-85856197D01*
X125248826Y-85879858D01*
X125250000Y-85903750D01*
X125250000Y-86816250D01*
X125248826Y-86840142D01*
X125245316Y-86863803D01*
X125239504Y-86887007D01*
X125231446Y-86909529D01*
X125221218Y-86931153D01*
X125208921Y-86951670D01*
X125194671Y-86970883D01*
X125178607Y-86988607D01*
X125160883Y-87004671D01*
X125141670Y-87018921D01*
X125121153Y-87031218D01*
X125099529Y-87041446D01*
X125077007Y-87049504D01*
X125053803Y-87055316D01*
X125030142Y-87058826D01*
X125006250Y-87060000D01*
X124518750Y-87060000D01*
X124494858Y-87058826D01*
X124471197Y-87055316D01*
X124447993Y-87049504D01*
X124425471Y-87041446D01*
X124403847Y-87031218D01*
X124383330Y-87018921D01*
X124364117Y-87004671D01*
X124346393Y-86988607D01*
X124330329Y-86970883D01*
X124316079Y-86951670D01*
X124303782Y-86931153D01*
X124293554Y-86909529D01*
X124285496Y-86887007D01*
X124279684Y-86863803D01*
X124276174Y-86840142D01*
X124275000Y-86816250D01*
X124275000Y-85903750D01*
X124276174Y-85879858D01*
X124279684Y-85856197D01*
X124285496Y-85832993D01*
X124293554Y-85810471D01*
X124303782Y-85788847D01*
X124316079Y-85768330D01*
X124330329Y-85749117D01*
X124346393Y-85731393D01*
X124364117Y-85715329D01*
X124383330Y-85701079D01*
X124403847Y-85688782D01*
X124425471Y-85678554D01*
X124447993Y-85670496D01*
X124471197Y-85664684D01*
X124494858Y-85661174D01*
X124518750Y-85660000D01*
X125006250Y-85660000D01*
X125030142Y-85661174D01*
G37*
G36*
X131290142Y-102051174D02*
G01*
X131313803Y-102054684D01*
X131337007Y-102060496D01*
X131359529Y-102068554D01*
X131381153Y-102078782D01*
X131401670Y-102091079D01*
X131420883Y-102105329D01*
X131438607Y-102121393D01*
X131454671Y-102139117D01*
X131468921Y-102158330D01*
X131481218Y-102178847D01*
X131491446Y-102200471D01*
X131499504Y-102222993D01*
X131505316Y-102246197D01*
X131508826Y-102269858D01*
X131510000Y-102293750D01*
X131510000Y-102781250D01*
X131508826Y-102805142D01*
X131505316Y-102828803D01*
X131499504Y-102852007D01*
X131491446Y-102874529D01*
X131481218Y-102896153D01*
X131468921Y-102916670D01*
X131454671Y-102935883D01*
X131438607Y-102953607D01*
X131420883Y-102969671D01*
X131401670Y-102983921D01*
X131381153Y-102996218D01*
X131359529Y-103006446D01*
X131337007Y-103014504D01*
X131313803Y-103020316D01*
X131290142Y-103023826D01*
X131266250Y-103025000D01*
X130353750Y-103025000D01*
X130329858Y-103023826D01*
X130306197Y-103020316D01*
X130282993Y-103014504D01*
X130260471Y-103006446D01*
X130238847Y-102996218D01*
X130218330Y-102983921D01*
X130199117Y-102969671D01*
X130181393Y-102953607D01*
X130165329Y-102935883D01*
X130151079Y-102916670D01*
X130138782Y-102896153D01*
X130128554Y-102874529D01*
X130120496Y-102852007D01*
X130114684Y-102828803D01*
X130111174Y-102805142D01*
X130110000Y-102781250D01*
X130110000Y-102293750D01*
X130111174Y-102269858D01*
X130114684Y-102246197D01*
X130120496Y-102222993D01*
X130128554Y-102200471D01*
X130138782Y-102178847D01*
X130151079Y-102158330D01*
X130165329Y-102139117D01*
X130181393Y-102121393D01*
X130199117Y-102105329D01*
X130218330Y-102091079D01*
X130238847Y-102078782D01*
X130260471Y-102068554D01*
X130282993Y-102060496D01*
X130306197Y-102054684D01*
X130329858Y-102051174D01*
X130353750Y-102050000D01*
X131266250Y-102050000D01*
X131290142Y-102051174D01*
G37*
G36*
X131290142Y-100176174D02*
G01*
X131313803Y-100179684D01*
X131337007Y-100185496D01*
X131359529Y-100193554D01*
X131381153Y-100203782D01*
X131401670Y-100216079D01*
X131420883Y-100230329D01*
X131438607Y-100246393D01*
X131454671Y-100264117D01*
X131468921Y-100283330D01*
X131481218Y-100303847D01*
X131491446Y-100325471D01*
X131499504Y-100347993D01*
X131505316Y-100371197D01*
X131508826Y-100394858D01*
X131510000Y-100418750D01*
X131510000Y-100906250D01*
X131508826Y-100930142D01*
X131505316Y-100953803D01*
X131499504Y-100977007D01*
X131491446Y-100999529D01*
X131481218Y-101021153D01*
X131468921Y-101041670D01*
X131454671Y-101060883D01*
X131438607Y-101078607D01*
X131420883Y-101094671D01*
X131401670Y-101108921D01*
X131381153Y-101121218D01*
X131359529Y-101131446D01*
X131337007Y-101139504D01*
X131313803Y-101145316D01*
X131290142Y-101148826D01*
X131266250Y-101150000D01*
X130353750Y-101150000D01*
X130329858Y-101148826D01*
X130306197Y-101145316D01*
X130282993Y-101139504D01*
X130260471Y-101131446D01*
X130238847Y-101121218D01*
X130218330Y-101108921D01*
X130199117Y-101094671D01*
X130181393Y-101078607D01*
X130165329Y-101060883D01*
X130151079Y-101041670D01*
X130138782Y-101021153D01*
X130128554Y-100999529D01*
X130120496Y-100977007D01*
X130114684Y-100953803D01*
X130111174Y-100930142D01*
X130110000Y-100906250D01*
X130110000Y-100418750D01*
X130111174Y-100394858D01*
X130114684Y-100371197D01*
X130120496Y-100347993D01*
X130128554Y-100325471D01*
X130138782Y-100303847D01*
X130151079Y-100283330D01*
X130165329Y-100264117D01*
X130181393Y-100246393D01*
X130199117Y-100230329D01*
X130218330Y-100216079D01*
X130238847Y-100203782D01*
X130260471Y-100193554D01*
X130282993Y-100185496D01*
X130306197Y-100179684D01*
X130329858Y-100176174D01*
X130353750Y-100175000D01*
X131266250Y-100175000D01*
X131290142Y-100176174D01*
G37*
G36*
X123035142Y-97606174D02*
G01*
X123058803Y-97609684D01*
X123082007Y-97615496D01*
X123104529Y-97623554D01*
X123126153Y-97633782D01*
X123146670Y-97646079D01*
X123165883Y-97660329D01*
X123183607Y-97676393D01*
X123199671Y-97694117D01*
X123213921Y-97713330D01*
X123226218Y-97733847D01*
X123236446Y-97755471D01*
X123244504Y-97777993D01*
X123250316Y-97801197D01*
X123253826Y-97824858D01*
X123255000Y-97848750D01*
X123255000Y-98336250D01*
X123253826Y-98360142D01*
X123250316Y-98383803D01*
X123244504Y-98407007D01*
X123236446Y-98429529D01*
X123226218Y-98451153D01*
X123213921Y-98471670D01*
X123199671Y-98490883D01*
X123183607Y-98508607D01*
X123165883Y-98524671D01*
X123146670Y-98538921D01*
X123126153Y-98551218D01*
X123104529Y-98561446D01*
X123082007Y-98569504D01*
X123058803Y-98575316D01*
X123035142Y-98578826D01*
X123011250Y-98580000D01*
X122098750Y-98580000D01*
X122074858Y-98578826D01*
X122051197Y-98575316D01*
X122027993Y-98569504D01*
X122005471Y-98561446D01*
X121983847Y-98551218D01*
X121963330Y-98538921D01*
X121944117Y-98524671D01*
X121926393Y-98508607D01*
X121910329Y-98490883D01*
X121896079Y-98471670D01*
X121883782Y-98451153D01*
X121873554Y-98429529D01*
X121865496Y-98407007D01*
X121859684Y-98383803D01*
X121856174Y-98360142D01*
X121855000Y-98336250D01*
X121855000Y-97848750D01*
X121856174Y-97824858D01*
X121859684Y-97801197D01*
X121865496Y-97777993D01*
X121873554Y-97755471D01*
X121883782Y-97733847D01*
X121896079Y-97713330D01*
X121910329Y-97694117D01*
X121926393Y-97676393D01*
X121944117Y-97660329D01*
X121963330Y-97646079D01*
X121983847Y-97633782D01*
X122005471Y-97623554D01*
X122027993Y-97615496D01*
X122051197Y-97609684D01*
X122074858Y-97606174D01*
X122098750Y-97605000D01*
X123011250Y-97605000D01*
X123035142Y-97606174D01*
G37*
G36*
X123035142Y-95731174D02*
G01*
X123058803Y-95734684D01*
X123082007Y-95740496D01*
X123104529Y-95748554D01*
X123126153Y-95758782D01*
X123146670Y-95771079D01*
X123165883Y-95785329D01*
X123183607Y-95801393D01*
X123199671Y-95819117D01*
X123213921Y-95838330D01*
X123226218Y-95858847D01*
X123236446Y-95880471D01*
X123244504Y-95902993D01*
X123250316Y-95926197D01*
X123253826Y-95949858D01*
X123255000Y-95973750D01*
X123255000Y-96461250D01*
X123253826Y-96485142D01*
X123250316Y-96508803D01*
X123244504Y-96532007D01*
X123236446Y-96554529D01*
X123226218Y-96576153D01*
X123213921Y-96596670D01*
X123199671Y-96615883D01*
X123183607Y-96633607D01*
X123165883Y-96649671D01*
X123146670Y-96663921D01*
X123126153Y-96676218D01*
X123104529Y-96686446D01*
X123082007Y-96694504D01*
X123058803Y-96700316D01*
X123035142Y-96703826D01*
X123011250Y-96705000D01*
X122098750Y-96705000D01*
X122074858Y-96703826D01*
X122051197Y-96700316D01*
X122027993Y-96694504D01*
X122005471Y-96686446D01*
X121983847Y-96676218D01*
X121963330Y-96663921D01*
X121944117Y-96649671D01*
X121926393Y-96633607D01*
X121910329Y-96615883D01*
X121896079Y-96596670D01*
X121883782Y-96576153D01*
X121873554Y-96554529D01*
X121865496Y-96532007D01*
X121859684Y-96508803D01*
X121856174Y-96485142D01*
X121855000Y-96461250D01*
X121855000Y-95973750D01*
X121856174Y-95949858D01*
X121859684Y-95926197D01*
X121865496Y-95902993D01*
X121873554Y-95880471D01*
X121883782Y-95858847D01*
X121896079Y-95838330D01*
X121910329Y-95819117D01*
X121926393Y-95801393D01*
X121944117Y-95785329D01*
X121963330Y-95771079D01*
X121983847Y-95758782D01*
X122005471Y-95748554D01*
X122027993Y-95740496D01*
X122051197Y-95734684D01*
X122074858Y-95731174D01*
X122098750Y-95730000D01*
X123011250Y-95730000D01*
X123035142Y-95731174D01*
G37*
G36*
X137640142Y-100176174D02*
G01*
X137663803Y-100179684D01*
X137687007Y-100185496D01*
X137709529Y-100193554D01*
X137731153Y-100203782D01*
X137751670Y-100216079D01*
X137770883Y-100230329D01*
X137788607Y-100246393D01*
X137804671Y-100264117D01*
X137818921Y-100283330D01*
X137831218Y-100303847D01*
X137841446Y-100325471D01*
X137849504Y-100347993D01*
X137855316Y-100371197D01*
X137858826Y-100394858D01*
X137860000Y-100418750D01*
X137860000Y-100906250D01*
X137858826Y-100930142D01*
X137855316Y-100953803D01*
X137849504Y-100977007D01*
X137841446Y-100999529D01*
X137831218Y-101021153D01*
X137818921Y-101041670D01*
X137804671Y-101060883D01*
X137788607Y-101078607D01*
X137770883Y-101094671D01*
X137751670Y-101108921D01*
X137731153Y-101121218D01*
X137709529Y-101131446D01*
X137687007Y-101139504D01*
X137663803Y-101145316D01*
X137640142Y-101148826D01*
X137616250Y-101150000D01*
X136703750Y-101150000D01*
X136679858Y-101148826D01*
X136656197Y-101145316D01*
X136632993Y-101139504D01*
X136610471Y-101131446D01*
X136588847Y-101121218D01*
X136568330Y-101108921D01*
X136549117Y-101094671D01*
X136531393Y-101078607D01*
X136515329Y-101060883D01*
X136501079Y-101041670D01*
X136488782Y-101021153D01*
X136478554Y-100999529D01*
X136470496Y-100977007D01*
X136464684Y-100953803D01*
X136461174Y-100930142D01*
X136460000Y-100906250D01*
X136460000Y-100418750D01*
X136461174Y-100394858D01*
X136464684Y-100371197D01*
X136470496Y-100347993D01*
X136478554Y-100325471D01*
X136488782Y-100303847D01*
X136501079Y-100283330D01*
X136515329Y-100264117D01*
X136531393Y-100246393D01*
X136549117Y-100230329D01*
X136568330Y-100216079D01*
X136588847Y-100203782D01*
X136610471Y-100193554D01*
X136632993Y-100185496D01*
X136656197Y-100179684D01*
X136679858Y-100176174D01*
X136703750Y-100175000D01*
X137616250Y-100175000D01*
X137640142Y-100176174D01*
G37*
G36*
X137640142Y-102051174D02*
G01*
X137663803Y-102054684D01*
X137687007Y-102060496D01*
X137709529Y-102068554D01*
X137731153Y-102078782D01*
X137751670Y-102091079D01*
X137770883Y-102105329D01*
X137788607Y-102121393D01*
X137804671Y-102139117D01*
X137818921Y-102158330D01*
X137831218Y-102178847D01*
X137841446Y-102200471D01*
X137849504Y-102222993D01*
X137855316Y-102246197D01*
X137858826Y-102269858D01*
X137860000Y-102293750D01*
X137860000Y-102781250D01*
X137858826Y-102805142D01*
X137855316Y-102828803D01*
X137849504Y-102852007D01*
X137841446Y-102874529D01*
X137831218Y-102896153D01*
X137818921Y-102916670D01*
X137804671Y-102935883D01*
X137788607Y-102953607D01*
X137770883Y-102969671D01*
X137751670Y-102983921D01*
X137731153Y-102996218D01*
X137709529Y-103006446D01*
X137687007Y-103014504D01*
X137663803Y-103020316D01*
X137640142Y-103023826D01*
X137616250Y-103025000D01*
X136703750Y-103025000D01*
X136679858Y-103023826D01*
X136656197Y-103020316D01*
X136632993Y-103014504D01*
X136610471Y-103006446D01*
X136588847Y-102996218D01*
X136568330Y-102983921D01*
X136549117Y-102969671D01*
X136531393Y-102953607D01*
X136515329Y-102935883D01*
X136501079Y-102916670D01*
X136488782Y-102896153D01*
X136478554Y-102874529D01*
X136470496Y-102852007D01*
X136464684Y-102828803D01*
X136461174Y-102805142D01*
X136460000Y-102781250D01*
X136460000Y-102293750D01*
X136461174Y-102269858D01*
X136464684Y-102246197D01*
X136470496Y-102222993D01*
X136478554Y-102200471D01*
X136488782Y-102178847D01*
X136501079Y-102158330D01*
X136515329Y-102139117D01*
X136531393Y-102121393D01*
X136549117Y-102105329D01*
X136568330Y-102091079D01*
X136588847Y-102078782D01*
X136610471Y-102068554D01*
X136632993Y-102060496D01*
X136656197Y-102054684D01*
X136679858Y-102051174D01*
X136703750Y-102050000D01*
X137616250Y-102050000D01*
X137640142Y-102051174D01*
G37*
G36*
X123035142Y-105256174D02*
G01*
X123058803Y-105259684D01*
X123082007Y-105265496D01*
X123104529Y-105273554D01*
X123126153Y-105283782D01*
X123146670Y-105296079D01*
X123165883Y-105310329D01*
X123183607Y-105326393D01*
X123199671Y-105344117D01*
X123213921Y-105363330D01*
X123226218Y-105383847D01*
X123236446Y-105405471D01*
X123244504Y-105427993D01*
X123250316Y-105451197D01*
X123253826Y-105474858D01*
X123255000Y-105498750D01*
X123255000Y-105986250D01*
X123253826Y-106010142D01*
X123250316Y-106033803D01*
X123244504Y-106057007D01*
X123236446Y-106079529D01*
X123226218Y-106101153D01*
X123213921Y-106121670D01*
X123199671Y-106140883D01*
X123183607Y-106158607D01*
X123165883Y-106174671D01*
X123146670Y-106188921D01*
X123126153Y-106201218D01*
X123104529Y-106211446D01*
X123082007Y-106219504D01*
X123058803Y-106225316D01*
X123035142Y-106228826D01*
X123011250Y-106230000D01*
X122098750Y-106230000D01*
X122074858Y-106228826D01*
X122051197Y-106225316D01*
X122027993Y-106219504D01*
X122005471Y-106211446D01*
X121983847Y-106201218D01*
X121963330Y-106188921D01*
X121944117Y-106174671D01*
X121926393Y-106158607D01*
X121910329Y-106140883D01*
X121896079Y-106121670D01*
X121883782Y-106101153D01*
X121873554Y-106079529D01*
X121865496Y-106057007D01*
X121859684Y-106033803D01*
X121856174Y-106010142D01*
X121855000Y-105986250D01*
X121855000Y-105498750D01*
X121856174Y-105474858D01*
X121859684Y-105451197D01*
X121865496Y-105427993D01*
X121873554Y-105405471D01*
X121883782Y-105383847D01*
X121896079Y-105363330D01*
X121910329Y-105344117D01*
X121926393Y-105326393D01*
X121944117Y-105310329D01*
X121963330Y-105296079D01*
X121983847Y-105283782D01*
X122005471Y-105273554D01*
X122027993Y-105265496D01*
X122051197Y-105259684D01*
X122074858Y-105256174D01*
X122098750Y-105255000D01*
X123011250Y-105255000D01*
X123035142Y-105256174D01*
G37*
G36*
X123035142Y-107131174D02*
G01*
X123058803Y-107134684D01*
X123082007Y-107140496D01*
X123104529Y-107148554D01*
X123126153Y-107158782D01*
X123146670Y-107171079D01*
X123165883Y-107185329D01*
X123183607Y-107201393D01*
X123199671Y-107219117D01*
X123213921Y-107238330D01*
X123226218Y-107258847D01*
X123236446Y-107280471D01*
X123244504Y-107302993D01*
X123250316Y-107326197D01*
X123253826Y-107349858D01*
X123255000Y-107373750D01*
X123255000Y-107861250D01*
X123253826Y-107885142D01*
X123250316Y-107908803D01*
X123244504Y-107932007D01*
X123236446Y-107954529D01*
X123226218Y-107976153D01*
X123213921Y-107996670D01*
X123199671Y-108015883D01*
X123183607Y-108033607D01*
X123165883Y-108049671D01*
X123146670Y-108063921D01*
X123126153Y-108076218D01*
X123104529Y-108086446D01*
X123082007Y-108094504D01*
X123058803Y-108100316D01*
X123035142Y-108103826D01*
X123011250Y-108105000D01*
X122098750Y-108105000D01*
X122074858Y-108103826D01*
X122051197Y-108100316D01*
X122027993Y-108094504D01*
X122005471Y-108086446D01*
X121983847Y-108076218D01*
X121963330Y-108063921D01*
X121944117Y-108049671D01*
X121926393Y-108033607D01*
X121910329Y-108015883D01*
X121896079Y-107996670D01*
X121883782Y-107976153D01*
X121873554Y-107954529D01*
X121865496Y-107932007D01*
X121859684Y-107908803D01*
X121856174Y-107885142D01*
X121855000Y-107861250D01*
X121855000Y-107373750D01*
X121856174Y-107349858D01*
X121859684Y-107326197D01*
X121865496Y-107302993D01*
X121873554Y-107280471D01*
X121883782Y-107258847D01*
X121896079Y-107238330D01*
X121910329Y-107219117D01*
X121926393Y-107201393D01*
X121944117Y-107185329D01*
X121963330Y-107171079D01*
X121983847Y-107158782D01*
X122005471Y-107148554D01*
X122027993Y-107140496D01*
X122051197Y-107134684D01*
X122074858Y-107131174D01*
X122098750Y-107130000D01*
X123011250Y-107130000D01*
X123035142Y-107131174D01*
G37*
G36*
X143990142Y-110306174D02*
G01*
X144013803Y-110309684D01*
X144037007Y-110315496D01*
X144059529Y-110323554D01*
X144081153Y-110333782D01*
X144101670Y-110346079D01*
X144120883Y-110360329D01*
X144138607Y-110376393D01*
X144154671Y-110394117D01*
X144168921Y-110413330D01*
X144181218Y-110433847D01*
X144191446Y-110455471D01*
X144199504Y-110477993D01*
X144205316Y-110501197D01*
X144208826Y-110524858D01*
X144210000Y-110548750D01*
X144210000Y-111036250D01*
X144208826Y-111060142D01*
X144205316Y-111083803D01*
X144199504Y-111107007D01*
X144191446Y-111129529D01*
X144181218Y-111151153D01*
X144168921Y-111171670D01*
X144154671Y-111190883D01*
X144138607Y-111208607D01*
X144120883Y-111224671D01*
X144101670Y-111238921D01*
X144081153Y-111251218D01*
X144059529Y-111261446D01*
X144037007Y-111269504D01*
X144013803Y-111275316D01*
X143990142Y-111278826D01*
X143966250Y-111280000D01*
X143053750Y-111280000D01*
X143029858Y-111278826D01*
X143006197Y-111275316D01*
X142982993Y-111269504D01*
X142960471Y-111261446D01*
X142938847Y-111251218D01*
X142918330Y-111238921D01*
X142899117Y-111224671D01*
X142881393Y-111208607D01*
X142865329Y-111190883D01*
X142851079Y-111171670D01*
X142838782Y-111151153D01*
X142828554Y-111129529D01*
X142820496Y-111107007D01*
X142814684Y-111083803D01*
X142811174Y-111060142D01*
X142810000Y-111036250D01*
X142810000Y-110548750D01*
X142811174Y-110524858D01*
X142814684Y-110501197D01*
X142820496Y-110477993D01*
X142828554Y-110455471D01*
X142838782Y-110433847D01*
X142851079Y-110413330D01*
X142865329Y-110394117D01*
X142881393Y-110376393D01*
X142899117Y-110360329D01*
X142918330Y-110346079D01*
X142938847Y-110333782D01*
X142960471Y-110323554D01*
X142982993Y-110315496D01*
X143006197Y-110309684D01*
X143029858Y-110306174D01*
X143053750Y-110305000D01*
X143966250Y-110305000D01*
X143990142Y-110306174D01*
G37*
G36*
X143990142Y-108431174D02*
G01*
X144013803Y-108434684D01*
X144037007Y-108440496D01*
X144059529Y-108448554D01*
X144081153Y-108458782D01*
X144101670Y-108471079D01*
X144120883Y-108485329D01*
X144138607Y-108501393D01*
X144154671Y-108519117D01*
X144168921Y-108538330D01*
X144181218Y-108558847D01*
X144191446Y-108580471D01*
X144199504Y-108602993D01*
X144205316Y-108626197D01*
X144208826Y-108649858D01*
X144210000Y-108673750D01*
X144210000Y-109161250D01*
X144208826Y-109185142D01*
X144205316Y-109208803D01*
X144199504Y-109232007D01*
X144191446Y-109254529D01*
X144181218Y-109276153D01*
X144168921Y-109296670D01*
X144154671Y-109315883D01*
X144138607Y-109333607D01*
X144120883Y-109349671D01*
X144101670Y-109363921D01*
X144081153Y-109376218D01*
X144059529Y-109386446D01*
X144037007Y-109394504D01*
X144013803Y-109400316D01*
X143990142Y-109403826D01*
X143966250Y-109405000D01*
X143053750Y-109405000D01*
X143029858Y-109403826D01*
X143006197Y-109400316D01*
X142982993Y-109394504D01*
X142960471Y-109386446D01*
X142938847Y-109376218D01*
X142918330Y-109363921D01*
X142899117Y-109349671D01*
X142881393Y-109333607D01*
X142865329Y-109315883D01*
X142851079Y-109296670D01*
X142838782Y-109276153D01*
X142828554Y-109254529D01*
X142820496Y-109232007D01*
X142814684Y-109208803D01*
X142811174Y-109185142D01*
X142810000Y-109161250D01*
X142810000Y-108673750D01*
X142811174Y-108649858D01*
X142814684Y-108626197D01*
X142820496Y-108602993D01*
X142828554Y-108580471D01*
X142838782Y-108558847D01*
X142851079Y-108538330D01*
X142865329Y-108519117D01*
X142881393Y-108501393D01*
X142899117Y-108485329D01*
X142918330Y-108471079D01*
X142938847Y-108458782D01*
X142960471Y-108448554D01*
X142982993Y-108440496D01*
X143006197Y-108434684D01*
X143029858Y-108431174D01*
X143053750Y-108430000D01*
X143966250Y-108430000D01*
X143990142Y-108431174D01*
G37*
G36*
X128750142Y-82366174D02*
G01*
X128773803Y-82369684D01*
X128797007Y-82375496D01*
X128819529Y-82383554D01*
X128841153Y-82393782D01*
X128861670Y-82406079D01*
X128880883Y-82420329D01*
X128898607Y-82436393D01*
X128914671Y-82454117D01*
X128928921Y-82473330D01*
X128941218Y-82493847D01*
X128951446Y-82515471D01*
X128959504Y-82537993D01*
X128965316Y-82561197D01*
X128968826Y-82584858D01*
X128970000Y-82608750D01*
X128970000Y-83096250D01*
X128968826Y-83120142D01*
X128965316Y-83143803D01*
X128959504Y-83167007D01*
X128951446Y-83189529D01*
X128941218Y-83211153D01*
X128928921Y-83231670D01*
X128914671Y-83250883D01*
X128898607Y-83268607D01*
X128880883Y-83284671D01*
X128861670Y-83298921D01*
X128841153Y-83311218D01*
X128819529Y-83321446D01*
X128797007Y-83329504D01*
X128773803Y-83335316D01*
X128750142Y-83338826D01*
X128726250Y-83340000D01*
X127813750Y-83340000D01*
X127789858Y-83338826D01*
X127766197Y-83335316D01*
X127742993Y-83329504D01*
X127720471Y-83321446D01*
X127698847Y-83311218D01*
X127678330Y-83298921D01*
X127659117Y-83284671D01*
X127641393Y-83268607D01*
X127625329Y-83250883D01*
X127611079Y-83231670D01*
X127598782Y-83211153D01*
X127588554Y-83189529D01*
X127580496Y-83167007D01*
X127574684Y-83143803D01*
X127571174Y-83120142D01*
X127570000Y-83096250D01*
X127570000Y-82608750D01*
X127571174Y-82584858D01*
X127574684Y-82561197D01*
X127580496Y-82537993D01*
X127588554Y-82515471D01*
X127598782Y-82493847D01*
X127611079Y-82473330D01*
X127625329Y-82454117D01*
X127641393Y-82436393D01*
X127659117Y-82420329D01*
X127678330Y-82406079D01*
X127698847Y-82393782D01*
X127720471Y-82383554D01*
X127742993Y-82375496D01*
X127766197Y-82369684D01*
X127789858Y-82366174D01*
X127813750Y-82365000D01*
X128726250Y-82365000D01*
X128750142Y-82366174D01*
G37*
G36*
X128750142Y-80491174D02*
G01*
X128773803Y-80494684D01*
X128797007Y-80500496D01*
X128819529Y-80508554D01*
X128841153Y-80518782D01*
X128861670Y-80531079D01*
X128880883Y-80545329D01*
X128898607Y-80561393D01*
X128914671Y-80579117D01*
X128928921Y-80598330D01*
X128941218Y-80618847D01*
X128951446Y-80640471D01*
X128959504Y-80662993D01*
X128965316Y-80686197D01*
X128968826Y-80709858D01*
X128970000Y-80733750D01*
X128970000Y-81221250D01*
X128968826Y-81245142D01*
X128965316Y-81268803D01*
X128959504Y-81292007D01*
X128951446Y-81314529D01*
X128941218Y-81336153D01*
X128928921Y-81356670D01*
X128914671Y-81375883D01*
X128898607Y-81393607D01*
X128880883Y-81409671D01*
X128861670Y-81423921D01*
X128841153Y-81436218D01*
X128819529Y-81446446D01*
X128797007Y-81454504D01*
X128773803Y-81460316D01*
X128750142Y-81463826D01*
X128726250Y-81465000D01*
X127813750Y-81465000D01*
X127789858Y-81463826D01*
X127766197Y-81460316D01*
X127742993Y-81454504D01*
X127720471Y-81446446D01*
X127698847Y-81436218D01*
X127678330Y-81423921D01*
X127659117Y-81409671D01*
X127641393Y-81393607D01*
X127625329Y-81375883D01*
X127611079Y-81356670D01*
X127598782Y-81336153D01*
X127588554Y-81314529D01*
X127580496Y-81292007D01*
X127574684Y-81268803D01*
X127571174Y-81245142D01*
X127570000Y-81221250D01*
X127570000Y-80733750D01*
X127571174Y-80709858D01*
X127574684Y-80686197D01*
X127580496Y-80662993D01*
X127588554Y-80640471D01*
X127598782Y-80618847D01*
X127611079Y-80598330D01*
X127625329Y-80579117D01*
X127641393Y-80561393D01*
X127659117Y-80545329D01*
X127678330Y-80531079D01*
X127698847Y-80518782D01*
X127720471Y-80508554D01*
X127742993Y-80500496D01*
X127766197Y-80494684D01*
X127789858Y-80491174D01*
X127813750Y-80490000D01*
X128726250Y-80490000D01*
X128750142Y-80491174D01*
G37*
G36*
X137640142Y-110306174D02*
G01*
X137663803Y-110309684D01*
X137687007Y-110315496D01*
X137709529Y-110323554D01*
X137731153Y-110333782D01*
X137751670Y-110346079D01*
X137770883Y-110360329D01*
X137788607Y-110376393D01*
X137804671Y-110394117D01*
X137818921Y-110413330D01*
X137831218Y-110433847D01*
X137841446Y-110455471D01*
X137849504Y-110477993D01*
X137855316Y-110501197D01*
X137858826Y-110524858D01*
X137860000Y-110548750D01*
X137860000Y-111036250D01*
X137858826Y-111060142D01*
X137855316Y-111083803D01*
X137849504Y-111107007D01*
X137841446Y-111129529D01*
X137831218Y-111151153D01*
X137818921Y-111171670D01*
X137804671Y-111190883D01*
X137788607Y-111208607D01*
X137770883Y-111224671D01*
X137751670Y-111238921D01*
X137731153Y-111251218D01*
X137709529Y-111261446D01*
X137687007Y-111269504D01*
X137663803Y-111275316D01*
X137640142Y-111278826D01*
X137616250Y-111280000D01*
X136703750Y-111280000D01*
X136679858Y-111278826D01*
X136656197Y-111275316D01*
X136632993Y-111269504D01*
X136610471Y-111261446D01*
X136588847Y-111251218D01*
X136568330Y-111238921D01*
X136549117Y-111224671D01*
X136531393Y-111208607D01*
X136515329Y-111190883D01*
X136501079Y-111171670D01*
X136488782Y-111151153D01*
X136478554Y-111129529D01*
X136470496Y-111107007D01*
X136464684Y-111083803D01*
X136461174Y-111060142D01*
X136460000Y-111036250D01*
X136460000Y-110548750D01*
X136461174Y-110524858D01*
X136464684Y-110501197D01*
X136470496Y-110477993D01*
X136478554Y-110455471D01*
X136488782Y-110433847D01*
X136501079Y-110413330D01*
X136515329Y-110394117D01*
X136531393Y-110376393D01*
X136549117Y-110360329D01*
X136568330Y-110346079D01*
X136588847Y-110333782D01*
X136610471Y-110323554D01*
X136632993Y-110315496D01*
X136656197Y-110309684D01*
X136679858Y-110306174D01*
X136703750Y-110305000D01*
X137616250Y-110305000D01*
X137640142Y-110306174D01*
G37*
G36*
X137640142Y-108431174D02*
G01*
X137663803Y-108434684D01*
X137687007Y-108440496D01*
X137709529Y-108448554D01*
X137731153Y-108458782D01*
X137751670Y-108471079D01*
X137770883Y-108485329D01*
X137788607Y-108501393D01*
X137804671Y-108519117D01*
X137818921Y-108538330D01*
X137831218Y-108558847D01*
X137841446Y-108580471D01*
X137849504Y-108602993D01*
X137855316Y-108626197D01*
X137858826Y-108649858D01*
X137860000Y-108673750D01*
X137860000Y-109161250D01*
X137858826Y-109185142D01*
X137855316Y-109208803D01*
X137849504Y-109232007D01*
X137841446Y-109254529D01*
X137831218Y-109276153D01*
X137818921Y-109296670D01*
X137804671Y-109315883D01*
X137788607Y-109333607D01*
X137770883Y-109349671D01*
X137751670Y-109363921D01*
X137731153Y-109376218D01*
X137709529Y-109386446D01*
X137687007Y-109394504D01*
X137663803Y-109400316D01*
X137640142Y-109403826D01*
X137616250Y-109405000D01*
X136703750Y-109405000D01*
X136679858Y-109403826D01*
X136656197Y-109400316D01*
X136632993Y-109394504D01*
X136610471Y-109386446D01*
X136588847Y-109376218D01*
X136568330Y-109363921D01*
X136549117Y-109349671D01*
X136531393Y-109333607D01*
X136515329Y-109315883D01*
X136501079Y-109296670D01*
X136488782Y-109276153D01*
X136478554Y-109254529D01*
X136470496Y-109232007D01*
X136464684Y-109208803D01*
X136461174Y-109185142D01*
X136460000Y-109161250D01*
X136460000Y-108673750D01*
X136461174Y-108649858D01*
X136464684Y-108626197D01*
X136470496Y-108602993D01*
X136478554Y-108580471D01*
X136488782Y-108558847D01*
X136501079Y-108538330D01*
X136515329Y-108519117D01*
X136531393Y-108501393D01*
X136549117Y-108485329D01*
X136568330Y-108471079D01*
X136588847Y-108458782D01*
X136610471Y-108448554D01*
X136632993Y-108440496D01*
X136656197Y-108434684D01*
X136679858Y-108431174D01*
X136703750Y-108430000D01*
X137616250Y-108430000D01*
X137640142Y-108431174D01*
G37*
G36*
X135855142Y-74231174D02*
G01*
X135878803Y-74234684D01*
X135902007Y-74240496D01*
X135924529Y-74248554D01*
X135946153Y-74258782D01*
X135966670Y-74271079D01*
X135985883Y-74285329D01*
X136003607Y-74301393D01*
X136019671Y-74319117D01*
X136033921Y-74338330D01*
X136046218Y-74358847D01*
X136056446Y-74380471D01*
X136064504Y-74402993D01*
X136070316Y-74426197D01*
X136073826Y-74449858D01*
X136075000Y-74473750D01*
X136075000Y-75386250D01*
X136073826Y-75410142D01*
X136070316Y-75433803D01*
X136064504Y-75457007D01*
X136056446Y-75479529D01*
X136046218Y-75501153D01*
X136033921Y-75521670D01*
X136019671Y-75540883D01*
X136003607Y-75558607D01*
X135985883Y-75574671D01*
X135966670Y-75588921D01*
X135946153Y-75601218D01*
X135924529Y-75611446D01*
X135902007Y-75619504D01*
X135878803Y-75625316D01*
X135855142Y-75628826D01*
X135831250Y-75630000D01*
X135343750Y-75630000D01*
X135319858Y-75628826D01*
X135296197Y-75625316D01*
X135272993Y-75619504D01*
X135250471Y-75611446D01*
X135228847Y-75601218D01*
X135208330Y-75588921D01*
X135189117Y-75574671D01*
X135171393Y-75558607D01*
X135155329Y-75540883D01*
X135141079Y-75521670D01*
X135128782Y-75501153D01*
X135118554Y-75479529D01*
X135110496Y-75457007D01*
X135104684Y-75433803D01*
X135101174Y-75410142D01*
X135100000Y-75386250D01*
X135100000Y-74473750D01*
X135101174Y-74449858D01*
X135104684Y-74426197D01*
X135110496Y-74402993D01*
X135118554Y-74380471D01*
X135128782Y-74358847D01*
X135141079Y-74338330D01*
X135155329Y-74319117D01*
X135171393Y-74301393D01*
X135189117Y-74285329D01*
X135208330Y-74271079D01*
X135228847Y-74258782D01*
X135250471Y-74248554D01*
X135272993Y-74240496D01*
X135296197Y-74234684D01*
X135319858Y-74231174D01*
X135343750Y-74230000D01*
X135831250Y-74230000D01*
X135855142Y-74231174D01*
G37*
G36*
X137730142Y-74231174D02*
G01*
X137753803Y-74234684D01*
X137777007Y-74240496D01*
X137799529Y-74248554D01*
X137821153Y-74258782D01*
X137841670Y-74271079D01*
X137860883Y-74285329D01*
X137878607Y-74301393D01*
X137894671Y-74319117D01*
X137908921Y-74338330D01*
X137921218Y-74358847D01*
X137931446Y-74380471D01*
X137939504Y-74402993D01*
X137945316Y-74426197D01*
X137948826Y-74449858D01*
X137950000Y-74473750D01*
X137950000Y-75386250D01*
X137948826Y-75410142D01*
X137945316Y-75433803D01*
X137939504Y-75457007D01*
X137931446Y-75479529D01*
X137921218Y-75501153D01*
X137908921Y-75521670D01*
X137894671Y-75540883D01*
X137878607Y-75558607D01*
X137860883Y-75574671D01*
X137841670Y-75588921D01*
X137821153Y-75601218D01*
X137799529Y-75611446D01*
X137777007Y-75619504D01*
X137753803Y-75625316D01*
X137730142Y-75628826D01*
X137706250Y-75630000D01*
X137218750Y-75630000D01*
X137194858Y-75628826D01*
X137171197Y-75625316D01*
X137147993Y-75619504D01*
X137125471Y-75611446D01*
X137103847Y-75601218D01*
X137083330Y-75588921D01*
X137064117Y-75574671D01*
X137046393Y-75558607D01*
X137030329Y-75540883D01*
X137016079Y-75521670D01*
X137003782Y-75501153D01*
X136993554Y-75479529D01*
X136985496Y-75457007D01*
X136979684Y-75433803D01*
X136976174Y-75410142D01*
X136975000Y-75386250D01*
X136975000Y-74473750D01*
X136976174Y-74449858D01*
X136979684Y-74426197D01*
X136985496Y-74402993D01*
X136993554Y-74380471D01*
X137003782Y-74358847D01*
X137016079Y-74338330D01*
X137030329Y-74319117D01*
X137046393Y-74301393D01*
X137064117Y-74285329D01*
X137083330Y-74271079D01*
X137103847Y-74258782D01*
X137125471Y-74248554D01*
X137147993Y-74240496D01*
X137171197Y-74234684D01*
X137194858Y-74231174D01*
X137218750Y-74230000D01*
X137706250Y-74230000D01*
X137730142Y-74231174D01*
G37*
G36*
X150340142Y-110306174D02*
G01*
X150363803Y-110309684D01*
X150387007Y-110315496D01*
X150409529Y-110323554D01*
X150431153Y-110333782D01*
X150451670Y-110346079D01*
X150470883Y-110360329D01*
X150488607Y-110376393D01*
X150504671Y-110394117D01*
X150518921Y-110413330D01*
X150531218Y-110433847D01*
X150541446Y-110455471D01*
X150549504Y-110477993D01*
X150555316Y-110501197D01*
X150558826Y-110524858D01*
X150560000Y-110548750D01*
X150560000Y-111036250D01*
X150558826Y-111060142D01*
X150555316Y-111083803D01*
X150549504Y-111107007D01*
X150541446Y-111129529D01*
X150531218Y-111151153D01*
X150518921Y-111171670D01*
X150504671Y-111190883D01*
X150488607Y-111208607D01*
X150470883Y-111224671D01*
X150451670Y-111238921D01*
X150431153Y-111251218D01*
X150409529Y-111261446D01*
X150387007Y-111269504D01*
X150363803Y-111275316D01*
X150340142Y-111278826D01*
X150316250Y-111280000D01*
X149403750Y-111280000D01*
X149379858Y-111278826D01*
X149356197Y-111275316D01*
X149332993Y-111269504D01*
X149310471Y-111261446D01*
X149288847Y-111251218D01*
X149268330Y-111238921D01*
X149249117Y-111224671D01*
X149231393Y-111208607D01*
X149215329Y-111190883D01*
X149201079Y-111171670D01*
X149188782Y-111151153D01*
X149178554Y-111129529D01*
X149170496Y-111107007D01*
X149164684Y-111083803D01*
X149161174Y-111060142D01*
X149160000Y-111036250D01*
X149160000Y-110548750D01*
X149161174Y-110524858D01*
X149164684Y-110501197D01*
X149170496Y-110477993D01*
X149178554Y-110455471D01*
X149188782Y-110433847D01*
X149201079Y-110413330D01*
X149215329Y-110394117D01*
X149231393Y-110376393D01*
X149249117Y-110360329D01*
X149268330Y-110346079D01*
X149288847Y-110333782D01*
X149310471Y-110323554D01*
X149332993Y-110315496D01*
X149356197Y-110309684D01*
X149379858Y-110306174D01*
X149403750Y-110305000D01*
X150316250Y-110305000D01*
X150340142Y-110306174D01*
G37*
G36*
X150340142Y-108431174D02*
G01*
X150363803Y-108434684D01*
X150387007Y-108440496D01*
X150409529Y-108448554D01*
X150431153Y-108458782D01*
X150451670Y-108471079D01*
X150470883Y-108485329D01*
X150488607Y-108501393D01*
X150504671Y-108519117D01*
X150518921Y-108538330D01*
X150531218Y-108558847D01*
X150541446Y-108580471D01*
X150549504Y-108602993D01*
X150555316Y-108626197D01*
X150558826Y-108649858D01*
X150560000Y-108673750D01*
X150560000Y-109161250D01*
X150558826Y-109185142D01*
X150555316Y-109208803D01*
X150549504Y-109232007D01*
X150541446Y-109254529D01*
X150531218Y-109276153D01*
X150518921Y-109296670D01*
X150504671Y-109315883D01*
X150488607Y-109333607D01*
X150470883Y-109349671D01*
X150451670Y-109363921D01*
X150431153Y-109376218D01*
X150409529Y-109386446D01*
X150387007Y-109394504D01*
X150363803Y-109400316D01*
X150340142Y-109403826D01*
X150316250Y-109405000D01*
X149403750Y-109405000D01*
X149379858Y-109403826D01*
X149356197Y-109400316D01*
X149332993Y-109394504D01*
X149310471Y-109386446D01*
X149288847Y-109376218D01*
X149268330Y-109363921D01*
X149249117Y-109349671D01*
X149231393Y-109333607D01*
X149215329Y-109315883D01*
X149201079Y-109296670D01*
X149188782Y-109276153D01*
X149178554Y-109254529D01*
X149170496Y-109232007D01*
X149164684Y-109208803D01*
X149161174Y-109185142D01*
X149160000Y-109161250D01*
X149160000Y-108673750D01*
X149161174Y-108649858D01*
X149164684Y-108626197D01*
X149170496Y-108602993D01*
X149178554Y-108580471D01*
X149188782Y-108558847D01*
X149201079Y-108538330D01*
X149215329Y-108519117D01*
X149231393Y-108501393D01*
X149249117Y-108485329D01*
X149268330Y-108471079D01*
X149288847Y-108458782D01*
X149310471Y-108448554D01*
X149332993Y-108440496D01*
X149356197Y-108434684D01*
X149379858Y-108431174D01*
X149403750Y-108430000D01*
X150316250Y-108430000D01*
X150340142Y-108431174D01*
G37*
G36*
X131290142Y-82366174D02*
G01*
X131313803Y-82369684D01*
X131337007Y-82375496D01*
X131359529Y-82383554D01*
X131381153Y-82393782D01*
X131401670Y-82406079D01*
X131420883Y-82420329D01*
X131438607Y-82436393D01*
X131454671Y-82454117D01*
X131468921Y-82473330D01*
X131481218Y-82493847D01*
X131491446Y-82515471D01*
X131499504Y-82537993D01*
X131505316Y-82561197D01*
X131508826Y-82584858D01*
X131510000Y-82608750D01*
X131510000Y-83096250D01*
X131508826Y-83120142D01*
X131505316Y-83143803D01*
X131499504Y-83167007D01*
X131491446Y-83189529D01*
X131481218Y-83211153D01*
X131468921Y-83231670D01*
X131454671Y-83250883D01*
X131438607Y-83268607D01*
X131420883Y-83284671D01*
X131401670Y-83298921D01*
X131381153Y-83311218D01*
X131359529Y-83321446D01*
X131337007Y-83329504D01*
X131313803Y-83335316D01*
X131290142Y-83338826D01*
X131266250Y-83340000D01*
X130353750Y-83340000D01*
X130329858Y-83338826D01*
X130306197Y-83335316D01*
X130282993Y-83329504D01*
X130260471Y-83321446D01*
X130238847Y-83311218D01*
X130218330Y-83298921D01*
X130199117Y-83284671D01*
X130181393Y-83268607D01*
X130165329Y-83250883D01*
X130151079Y-83231670D01*
X130138782Y-83211153D01*
X130128554Y-83189529D01*
X130120496Y-83167007D01*
X130114684Y-83143803D01*
X130111174Y-83120142D01*
X130110000Y-83096250D01*
X130110000Y-82608750D01*
X130111174Y-82584858D01*
X130114684Y-82561197D01*
X130120496Y-82537993D01*
X130128554Y-82515471D01*
X130138782Y-82493847D01*
X130151079Y-82473330D01*
X130165329Y-82454117D01*
X130181393Y-82436393D01*
X130199117Y-82420329D01*
X130218330Y-82406079D01*
X130238847Y-82393782D01*
X130260471Y-82383554D01*
X130282993Y-82375496D01*
X130306197Y-82369684D01*
X130329858Y-82366174D01*
X130353750Y-82365000D01*
X131266250Y-82365000D01*
X131290142Y-82366174D01*
G37*
G36*
X131290142Y-80491174D02*
G01*
X131313803Y-80494684D01*
X131337007Y-80500496D01*
X131359529Y-80508554D01*
X131381153Y-80518782D01*
X131401670Y-80531079D01*
X131420883Y-80545329D01*
X131438607Y-80561393D01*
X131454671Y-80579117D01*
X131468921Y-80598330D01*
X131481218Y-80618847D01*
X131491446Y-80640471D01*
X131499504Y-80662993D01*
X131505316Y-80686197D01*
X131508826Y-80709858D01*
X131510000Y-80733750D01*
X131510000Y-81221250D01*
X131508826Y-81245142D01*
X131505316Y-81268803D01*
X131499504Y-81292007D01*
X131491446Y-81314529D01*
X131481218Y-81336153D01*
X131468921Y-81356670D01*
X131454671Y-81375883D01*
X131438607Y-81393607D01*
X131420883Y-81409671D01*
X131401670Y-81423921D01*
X131381153Y-81436218D01*
X131359529Y-81446446D01*
X131337007Y-81454504D01*
X131313803Y-81460316D01*
X131290142Y-81463826D01*
X131266250Y-81465000D01*
X130353750Y-81465000D01*
X130329858Y-81463826D01*
X130306197Y-81460316D01*
X130282993Y-81454504D01*
X130260471Y-81446446D01*
X130238847Y-81436218D01*
X130218330Y-81423921D01*
X130199117Y-81409671D01*
X130181393Y-81393607D01*
X130165329Y-81375883D01*
X130151079Y-81356670D01*
X130138782Y-81336153D01*
X130128554Y-81314529D01*
X130120496Y-81292007D01*
X130114684Y-81268803D01*
X130111174Y-81245142D01*
X130110000Y-81221250D01*
X130110000Y-80733750D01*
X130111174Y-80709858D01*
X130114684Y-80686197D01*
X130120496Y-80662993D01*
X130128554Y-80640471D01*
X130138782Y-80618847D01*
X130151079Y-80598330D01*
X130165329Y-80579117D01*
X130181393Y-80561393D01*
X130199117Y-80545329D01*
X130218330Y-80531079D01*
X130238847Y-80518782D01*
X130260471Y-80508554D01*
X130282993Y-80500496D01*
X130306197Y-80494684D01*
X130329858Y-80491174D01*
X130353750Y-80490000D01*
X131266250Y-80490000D01*
X131290142Y-80491174D01*
G37*
G36*
X143990142Y-100176174D02*
G01*
X144013803Y-100179684D01*
X144037007Y-100185496D01*
X144059529Y-100193554D01*
X144081153Y-100203782D01*
X144101670Y-100216079D01*
X144120883Y-100230329D01*
X144138607Y-100246393D01*
X144154671Y-100264117D01*
X144168921Y-100283330D01*
X144181218Y-100303847D01*
X144191446Y-100325471D01*
X144199504Y-100347993D01*
X144205316Y-100371197D01*
X144208826Y-100394858D01*
X144210000Y-100418750D01*
X144210000Y-100906250D01*
X144208826Y-100930142D01*
X144205316Y-100953803D01*
X144199504Y-100977007D01*
X144191446Y-100999529D01*
X144181218Y-101021153D01*
X144168921Y-101041670D01*
X144154671Y-101060883D01*
X144138607Y-101078607D01*
X144120883Y-101094671D01*
X144101670Y-101108921D01*
X144081153Y-101121218D01*
X144059529Y-101131446D01*
X144037007Y-101139504D01*
X144013803Y-101145316D01*
X143990142Y-101148826D01*
X143966250Y-101150000D01*
X143053750Y-101150000D01*
X143029858Y-101148826D01*
X143006197Y-101145316D01*
X142982993Y-101139504D01*
X142960471Y-101131446D01*
X142938847Y-101121218D01*
X142918330Y-101108921D01*
X142899117Y-101094671D01*
X142881393Y-101078607D01*
X142865329Y-101060883D01*
X142851079Y-101041670D01*
X142838782Y-101021153D01*
X142828554Y-100999529D01*
X142820496Y-100977007D01*
X142814684Y-100953803D01*
X142811174Y-100930142D01*
X142810000Y-100906250D01*
X142810000Y-100418750D01*
X142811174Y-100394858D01*
X142814684Y-100371197D01*
X142820496Y-100347993D01*
X142828554Y-100325471D01*
X142838782Y-100303847D01*
X142851079Y-100283330D01*
X142865329Y-100264117D01*
X142881393Y-100246393D01*
X142899117Y-100230329D01*
X142918330Y-100216079D01*
X142938847Y-100203782D01*
X142960471Y-100193554D01*
X142982993Y-100185496D01*
X143006197Y-100179684D01*
X143029858Y-100176174D01*
X143053750Y-100175000D01*
X143966250Y-100175000D01*
X143990142Y-100176174D01*
G37*
G36*
X143990142Y-102051174D02*
G01*
X144013803Y-102054684D01*
X144037007Y-102060496D01*
X144059529Y-102068554D01*
X144081153Y-102078782D01*
X144101670Y-102091079D01*
X144120883Y-102105329D01*
X144138607Y-102121393D01*
X144154671Y-102139117D01*
X144168921Y-102158330D01*
X144181218Y-102178847D01*
X144191446Y-102200471D01*
X144199504Y-102222993D01*
X144205316Y-102246197D01*
X144208826Y-102269858D01*
X144210000Y-102293750D01*
X144210000Y-102781250D01*
X144208826Y-102805142D01*
X144205316Y-102828803D01*
X144199504Y-102852007D01*
X144191446Y-102874529D01*
X144181218Y-102896153D01*
X144168921Y-102916670D01*
X144154671Y-102935883D01*
X144138607Y-102953607D01*
X144120883Y-102969671D01*
X144101670Y-102983921D01*
X144081153Y-102996218D01*
X144059529Y-103006446D01*
X144037007Y-103014504D01*
X144013803Y-103020316D01*
X143990142Y-103023826D01*
X143966250Y-103025000D01*
X143053750Y-103025000D01*
X143029858Y-103023826D01*
X143006197Y-103020316D01*
X142982993Y-103014504D01*
X142960471Y-103006446D01*
X142938847Y-102996218D01*
X142918330Y-102983921D01*
X142899117Y-102969671D01*
X142881393Y-102953607D01*
X142865329Y-102935883D01*
X142851079Y-102916670D01*
X142838782Y-102896153D01*
X142828554Y-102874529D01*
X142820496Y-102852007D01*
X142814684Y-102828803D01*
X142811174Y-102805142D01*
X142810000Y-102781250D01*
X142810000Y-102293750D01*
X142811174Y-102269858D01*
X142814684Y-102246197D01*
X142820496Y-102222993D01*
X142828554Y-102200471D01*
X142838782Y-102178847D01*
X142851079Y-102158330D01*
X142865329Y-102139117D01*
X142881393Y-102121393D01*
X142899117Y-102105329D01*
X142918330Y-102091079D01*
X142938847Y-102078782D01*
X142960471Y-102068554D01*
X142982993Y-102060496D01*
X143006197Y-102054684D01*
X143029858Y-102051174D01*
X143053750Y-102050000D01*
X143966250Y-102050000D01*
X143990142Y-102051174D01*
G37*
G36*
X150340142Y-100176174D02*
G01*
X150363803Y-100179684D01*
X150387007Y-100185496D01*
X150409529Y-100193554D01*
X150431153Y-100203782D01*
X150451670Y-100216079D01*
X150470883Y-100230329D01*
X150488607Y-100246393D01*
X150504671Y-100264117D01*
X150518921Y-100283330D01*
X150531218Y-100303847D01*
X150541446Y-100325471D01*
X150549504Y-100347993D01*
X150555316Y-100371197D01*
X150558826Y-100394858D01*
X150560000Y-100418750D01*
X150560000Y-100906250D01*
X150558826Y-100930142D01*
X150555316Y-100953803D01*
X150549504Y-100977007D01*
X150541446Y-100999529D01*
X150531218Y-101021153D01*
X150518921Y-101041670D01*
X150504671Y-101060883D01*
X150488607Y-101078607D01*
X150470883Y-101094671D01*
X150451670Y-101108921D01*
X150431153Y-101121218D01*
X150409529Y-101131446D01*
X150387007Y-101139504D01*
X150363803Y-101145316D01*
X150340142Y-101148826D01*
X150316250Y-101150000D01*
X149403750Y-101150000D01*
X149379858Y-101148826D01*
X149356197Y-101145316D01*
X149332993Y-101139504D01*
X149310471Y-101131446D01*
X149288847Y-101121218D01*
X149268330Y-101108921D01*
X149249117Y-101094671D01*
X149231393Y-101078607D01*
X149215329Y-101060883D01*
X149201079Y-101041670D01*
X149188782Y-101021153D01*
X149178554Y-100999529D01*
X149170496Y-100977007D01*
X149164684Y-100953803D01*
X149161174Y-100930142D01*
X149160000Y-100906250D01*
X149160000Y-100418750D01*
X149161174Y-100394858D01*
X149164684Y-100371197D01*
X149170496Y-100347993D01*
X149178554Y-100325471D01*
X149188782Y-100303847D01*
X149201079Y-100283330D01*
X149215329Y-100264117D01*
X149231393Y-100246393D01*
X149249117Y-100230329D01*
X149268330Y-100216079D01*
X149288847Y-100203782D01*
X149310471Y-100193554D01*
X149332993Y-100185496D01*
X149356197Y-100179684D01*
X149379858Y-100176174D01*
X149403750Y-100175000D01*
X150316250Y-100175000D01*
X150340142Y-100176174D01*
G37*
G36*
X150340142Y-102051174D02*
G01*
X150363803Y-102054684D01*
X150387007Y-102060496D01*
X150409529Y-102068554D01*
X150431153Y-102078782D01*
X150451670Y-102091079D01*
X150470883Y-102105329D01*
X150488607Y-102121393D01*
X150504671Y-102139117D01*
X150518921Y-102158330D01*
X150531218Y-102178847D01*
X150541446Y-102200471D01*
X150549504Y-102222993D01*
X150555316Y-102246197D01*
X150558826Y-102269858D01*
X150560000Y-102293750D01*
X150560000Y-102781250D01*
X150558826Y-102805142D01*
X150555316Y-102828803D01*
X150549504Y-102852007D01*
X150541446Y-102874529D01*
X150531218Y-102896153D01*
X150518921Y-102916670D01*
X150504671Y-102935883D01*
X150488607Y-102953607D01*
X150470883Y-102969671D01*
X150451670Y-102983921D01*
X150431153Y-102996218D01*
X150409529Y-103006446D01*
X150387007Y-103014504D01*
X150363803Y-103020316D01*
X150340142Y-103023826D01*
X150316250Y-103025000D01*
X149403750Y-103025000D01*
X149379858Y-103023826D01*
X149356197Y-103020316D01*
X149332993Y-103014504D01*
X149310471Y-103006446D01*
X149288847Y-102996218D01*
X149268330Y-102983921D01*
X149249117Y-102969671D01*
X149231393Y-102953607D01*
X149215329Y-102935883D01*
X149201079Y-102916670D01*
X149188782Y-102896153D01*
X149178554Y-102874529D01*
X149170496Y-102852007D01*
X149164684Y-102828803D01*
X149161174Y-102805142D01*
X149160000Y-102781250D01*
X149160000Y-102293750D01*
X149161174Y-102269858D01*
X149164684Y-102246197D01*
X149170496Y-102222993D01*
X149178554Y-102200471D01*
X149188782Y-102178847D01*
X149201079Y-102158330D01*
X149215329Y-102139117D01*
X149231393Y-102121393D01*
X149249117Y-102105329D01*
X149268330Y-102091079D01*
X149288847Y-102078782D01*
X149310471Y-102068554D01*
X149332993Y-102060496D01*
X149356197Y-102054684D01*
X149379858Y-102051174D01*
X149403750Y-102050000D01*
X150316250Y-102050000D01*
X150340142Y-102051174D01*
G37*
G36*
X133830142Y-82366174D02*
G01*
X133853803Y-82369684D01*
X133877007Y-82375496D01*
X133899529Y-82383554D01*
X133921153Y-82393782D01*
X133941670Y-82406079D01*
X133960883Y-82420329D01*
X133978607Y-82436393D01*
X133994671Y-82454117D01*
X134008921Y-82473330D01*
X134021218Y-82493847D01*
X134031446Y-82515471D01*
X134039504Y-82537993D01*
X134045316Y-82561197D01*
X134048826Y-82584858D01*
X134050000Y-82608750D01*
X134050000Y-83096250D01*
X134048826Y-83120142D01*
X134045316Y-83143803D01*
X134039504Y-83167007D01*
X134031446Y-83189529D01*
X134021218Y-83211153D01*
X134008921Y-83231670D01*
X133994671Y-83250883D01*
X133978607Y-83268607D01*
X133960883Y-83284671D01*
X133941670Y-83298921D01*
X133921153Y-83311218D01*
X133899529Y-83321446D01*
X133877007Y-83329504D01*
X133853803Y-83335316D01*
X133830142Y-83338826D01*
X133806250Y-83340000D01*
X132893750Y-83340000D01*
X132869858Y-83338826D01*
X132846197Y-83335316D01*
X132822993Y-83329504D01*
X132800471Y-83321446D01*
X132778847Y-83311218D01*
X132758330Y-83298921D01*
X132739117Y-83284671D01*
X132721393Y-83268607D01*
X132705329Y-83250883D01*
X132691079Y-83231670D01*
X132678782Y-83211153D01*
X132668554Y-83189529D01*
X132660496Y-83167007D01*
X132654684Y-83143803D01*
X132651174Y-83120142D01*
X132650000Y-83096250D01*
X132650000Y-82608750D01*
X132651174Y-82584858D01*
X132654684Y-82561197D01*
X132660496Y-82537993D01*
X132668554Y-82515471D01*
X132678782Y-82493847D01*
X132691079Y-82473330D01*
X132705329Y-82454117D01*
X132721393Y-82436393D01*
X132739117Y-82420329D01*
X132758330Y-82406079D01*
X132778847Y-82393782D01*
X132800471Y-82383554D01*
X132822993Y-82375496D01*
X132846197Y-82369684D01*
X132869858Y-82366174D01*
X132893750Y-82365000D01*
X133806250Y-82365000D01*
X133830142Y-82366174D01*
G37*
G36*
X133830142Y-80491174D02*
G01*
X133853803Y-80494684D01*
X133877007Y-80500496D01*
X133899529Y-80508554D01*
X133921153Y-80518782D01*
X133941670Y-80531079D01*
X133960883Y-80545329D01*
X133978607Y-80561393D01*
X133994671Y-80579117D01*
X134008921Y-80598330D01*
X134021218Y-80618847D01*
X134031446Y-80640471D01*
X134039504Y-80662993D01*
X134045316Y-80686197D01*
X134048826Y-80709858D01*
X134050000Y-80733750D01*
X134050000Y-81221250D01*
X134048826Y-81245142D01*
X134045316Y-81268803D01*
X134039504Y-81292007D01*
X134031446Y-81314529D01*
X134021218Y-81336153D01*
X134008921Y-81356670D01*
X133994671Y-81375883D01*
X133978607Y-81393607D01*
X133960883Y-81409671D01*
X133941670Y-81423921D01*
X133921153Y-81436218D01*
X133899529Y-81446446D01*
X133877007Y-81454504D01*
X133853803Y-81460316D01*
X133830142Y-81463826D01*
X133806250Y-81465000D01*
X132893750Y-81465000D01*
X132869858Y-81463826D01*
X132846197Y-81460316D01*
X132822993Y-81454504D01*
X132800471Y-81446446D01*
X132778847Y-81436218D01*
X132758330Y-81423921D01*
X132739117Y-81409671D01*
X132721393Y-81393607D01*
X132705329Y-81375883D01*
X132691079Y-81356670D01*
X132678782Y-81336153D01*
X132668554Y-81314529D01*
X132660496Y-81292007D01*
X132654684Y-81268803D01*
X132651174Y-81245142D01*
X132650000Y-81221250D01*
X132650000Y-80733750D01*
X132651174Y-80709858D01*
X132654684Y-80686197D01*
X132660496Y-80662993D01*
X132668554Y-80640471D01*
X132678782Y-80618847D01*
X132691079Y-80598330D01*
X132705329Y-80579117D01*
X132721393Y-80561393D01*
X132739117Y-80545329D01*
X132758330Y-80531079D01*
X132778847Y-80518782D01*
X132800471Y-80508554D01*
X132822993Y-80500496D01*
X132846197Y-80494684D01*
X132869858Y-80491174D01*
X132893750Y-80490000D01*
X133806250Y-80490000D01*
X133830142Y-80491174D01*
G37*
M02*
